<?xml version="1.0" encoding="UTF-8" standalone="no"?>
<svg width="68px" height="73px" viewBox="0 0 68 73" version="1.1" xmlns="http://www.w3.org/2000/svg" xmlns:xlink="http://www.w3.org/1999/xlink">
    <!-- Generator: Sketch 39.1 (31720) - http://www.bohemiancoding.com/sketch -->
    <title>Page 1</title>
    <desc>Created with Sketch.</desc>
    <defs>
        <polygon id="path-1" points="3.4551727 0.2144256 0.00203932732 0.2144256 0.00203932732 70.9458166 3.4551727 70.9458166 3.4551727 0.2144256"></polygon>
        <polygon id="path-3" points="0 0.0431831426 0 24.8506028 3.45312626 24.8506028 3.45312626 0.0431831426"></polygon>
    </defs>
    <g id="Page-1" stroke="none" stroke-width="1" fill="none" fill-rule="evenodd">
        <g id="Home" transform="translate(-318.000000, -159.000000)">
            <g id="Page-1" transform="translate(318.000000, 159.000000)">
                <path d="M33.9390812,70.9861296 L33.9390812,1.88786206 L33.9390812,70.9861296 Z" id="Fill-1" fill="#000000"></path>
                <g id="Group-62" transform="translate(0.000000, 0.040237)">
                    <g id="Group-4" transform="translate(32.210526, 0.000000)">
                        <mask id="mask-2" fill="white">
                            <use xlink:href="#path-1"></use>
                        </mask>
                        <g id="Clip-3"></g>
                        <path d="M0.0669518797,1.84754903 C0.0669518797,1.84754903 0.0523804511,2.9273169 0.0268165414,4.816656 C0.0211924812,5.76119822 0.0145458647,6.90845158 0.00662105263,8.22429134 C-0.000281203008,9.54013109 0.00099699248,11.0245572 0.00789924812,12.644209 C0.00841052632,14.2636062 0.023237594,16.018229 0.0408766917,17.873698 C0.0526360902,19.7294217 0.0802451128,21.6862463 0.1122,23.710811 C0.127282707,24.7228387 0.142365414,25.7519288 0.157959398,26.793752 C0.179433083,27.8353205 0.201418045,28.8896222 0.223658647,29.9525824 C0.270184962,32.0779933 0.307252632,34.2372744 0.370651128,36.3968101 C0.428936842,38.5560912 0.486711278,40.7153723 0.543974436,42.8410379 C0.612485714,44.9664489 0.679974436,47.0584992 0.745162406,49.0828093 C0.819553383,51.1071194 0.89138797,53.063944 0.95938797,54.9196676 C1.02457594,56.7753913 1.10944812,58.5297595 1.17591429,60.1491566 C1.24033534,61.7688084 1.32392932,63.2532345 1.38758346,64.5690743 C1.45353835,65.8849141 1.51105714,67.0321674 1.55835038,67.9767096 C1.6035985,68.9215065 1.65523759,69.6638469 1.68284662,70.1698608 C1.71250075,70.6758746 1.72860602,70.9458166 1.72860602,70.9458166 C1.72860602,70.9458166 1.74445564,70.6758746 1.77436541,70.1698608 C1.80197444,69.6638469 1.85361353,68.9215065 1.89886165,67.9767096 C1.94615489,67.0321674 2.00367368,65.8849141 2.06962857,64.5690743 C2.13328271,63.2532345 2.21687669,61.7688084 2.28129774,60.1491566 C2.34776391,58.5297595 2.43263609,56.7753913 2.49782406,54.9196676 C2.56582406,53.063944 2.63765865,51.1071194 2.71204962,49.0828093 C2.77723759,47.0584992 2.84472632,44.9664489 2.91323759,42.8410379 C2.97050075,40.7153723 3.02827519,38.5560912 3.0865609,36.3968101 C3.1499594,34.2372744 3.18702707,32.0779933 3.23355338,29.9525824 C3.25579398,28.8896222 3.27777895,27.8353205 3.29925263,26.793752 C3.31484662,25.7519288 3.32992932,24.7228387 3.34501203,23.710811 C3.37696692,21.6862463 3.40457594,19.7294217 3.41633534,17.873698 C3.43397444,16.018229 3.4488015,14.2636062 3.44931278,12.644209 C3.45621504,11.0245572 3.45749323,9.54013109 3.45059098,8.22429134 C3.44266617,6.90845158 3.43601955,5.76119822 3.43039549,4.816656 C3.40483158,2.9273169 3.39026015,1.84754903 3.39026015,1.84754903 C3.37798947,0.933311616 2.62385414,0.202176347 1.70636541,0.214400134 C0.804470677,0.226623921 0.0799894737,0.954703244 0.0669518797,1.84754903" id="Fill-2" fill="#1D1D1B" mask="url(#mask-2)"></path>
                    </g>
                    <path d="M29.3373218,2.35689896 L29.3373218,70.4365176" id="Fill-5" fill="#000000"></path>
                    <path d="M27.6756677,2.35689896 C27.6756677,2.35689896 27.6610962,3.42062311 27.6355323,5.28220403 C27.6301639,6.21299449 27.6232617,7.34318548 27.6153368,8.63967091 C27.6084346,9.93615633 27.6097128,11.3986815 27.616615,12.9943951 C27.6171263,14.589854 27.6319534,16.3185012 27.6495925,18.1467214 C27.6613519,19.9751962 27.6889609,21.903244 27.7209158,23.8977586 C27.7359985,24.8950159 27.7510812,25.9088262 27.7666752,26.935115 C27.7884045,27.9616585 27.8103895,29.0004257 27.8323744,30.0475968 C27.8789008,32.1416844 27.9159684,34.2691327 27.9796226,36.3968356 C28.0376526,38.5242839 28.0954271,40.6517322 28.1526902,42.7458197 C28.2212015,44.8401619 28.2886902,46.9011434 28.3538782,48.895658 C28.4282692,50.8901726 28.5001038,52.8182204 28.5681038,54.6466952 C28.6332917,56.4749154 28.7181639,58.2035626 28.7846301,59.7990215 C28.8490511,61.394735 28.9326451,62.8572602 28.9962992,64.1537457 C29.0622541,65.4502311 29.1197729,66.5804221 29.1670662,67.5112125 C29.2123143,68.442003 29.2639534,69.1733929 29.2915624,69.6720216 C29.3214722,70.1706502 29.3373218,70.4365176 29.3373218,70.4365176 C29.3373218,70.4365176 29.3531714,70.1706502 29.3830812,69.6720216 C29.4106902,69.1733929 29.4623293,68.442003 29.5075774,67.5112125 C29.5548707,66.5804221 29.6123895,65.4502311 29.6783444,64.1537457 C29.7419985,62.8572602 29.8255925,61.394735 29.8900135,59.7990215 C29.9564797,58.2035626 30.0413519,56.4749154 30.1065398,54.6466952 C30.1747955,52.8182204 30.2463744,50.8901726 30.3207654,48.895658 C30.386209,46.9011434 30.4534421,44.8401619 30.522209,42.7458197 C30.5792165,40.6517322 30.6372466,38.5242839 30.6952767,36.3968356 C30.7586752,34.2691327 30.7957429,32.1416844 30.8422692,30.0475968 C30.8645098,29.0004257 30.8864947,27.9616585 30.9079684,26.935115 C30.9235624,25.9088262 30.9386451,24.8950159 30.9537278,23.8977586 C30.9856827,21.903244 31.0132917,19.9751962 31.0250511,18.1467214 C31.0426902,16.3185012 31.0575173,14.589854 31.0582842,12.9943951 C31.0649308,11.3986815 31.066209,9.93615633 31.0593068,8.63967091 C31.051382,7.34318548 31.0447353,6.21299449 31.0391113,5.28220403 C31.0135474,3.42062311 30.9989759,2.35689896 30.9989759,2.35689896 C30.9864496,1.44266155 30.2323143,0.71178094 29.3145699,0.72425939 C28.4129308,0.736483177 27.6887053,1.46430784 27.6756677,2.35689896" id="Fill-7" fill="#1D1D1B"></path>
                    <path d="M24.7355368,3.37562429 L24.7355368,69.4179451" id="Fill-9" fill="#000000"></path>
                    <path d="M23.0739083,3.37562429 C23.0739083,3.37562429 23.0593368,4.40751566 23.0337729,6.21332555 C23.0281489,7.11635783 23.0215023,8.21267874 23.0135774,9.47045551 C23.0066752,10.7279776 23.0079534,12.1469556 23.0146,13.6947926 C23.0153669,15.2426297 23.030194,16.9193258 23.0478331,18.6930483 C23.0595925,20.4665161 23.0872015,22.3370101 23.1191564,24.2716791 C23.1342391,25.239141 23.1493218,26.2226465 23.1649158,27.2183758 C23.1863895,28.2141052 23.2083744,29.2218036 23.230615,30.2373966 C23.2771414,32.2690919 23.314209,34.3328746 23.3776075,36.3966574 C23.4356376,38.4604401 23.4936677,40.5244775 23.5506752,42.5559181 C23.6194421,44.5876134 23.6869308,46.5867119 23.7521188,48.5216356 C23.8265098,50.4565592 23.8980887,52.3267987 23.9663444,54.1005211 C24.0315323,55.8739889 24.1164045,57.5509397 24.1828707,59.0987767 C24.2472917,60.6466138 24.3308857,62.0655918 24.3945398,63.3231139 C24.4604947,64.580636 24.5180135,65.6772115 24.5653068,66.5799892 C24.6105549,67.4830214 24.662194,68.1925104 24.689803,68.676114 C24.7194571,69.1599722 24.7355624,69.4179451 24.7355624,69.4179451 C24.7355624,69.4179451 24.751412,69.1599722 24.7813218,68.676114 C24.8089308,68.1925104 24.8605699,67.4830214 24.905818,66.5799892 C24.9531113,65.6772115 25.0106301,64.580636 25.076585,63.3231139 C25.1402391,62.0655918 25.2238331,60.6466138 25.2882541,59.0987767 C25.3547203,57.5509397 25.4395925,55.8739889 25.5047805,54.1005211 C25.5727805,52.3267987 25.644615,50.4565592 25.719006,48.5216356 C25.784194,46.5867119 25.8516827,44.5876134 25.920194,42.5559181 C25.9774571,40.5244775 26.0352316,38.4604401 26.0932617,36.3966574 C26.1569158,34.3328746 26.1939835,32.2690919 26.2405098,30.2373966 C26.2627504,29.2218036 26.2844797,28.2141052 26.306209,27.2183758 C26.321803,26.2226465 26.3368857,25.239141 26.3519684,24.2716791 C26.3839233,22.3370101 26.4115323,20.4665161 26.4232917,18.6930483 C26.4409308,16.9193258 26.4557579,15.2426297 26.4562692,13.6947926 C26.4631714,12.1469556 26.4644496,10.7279776 26.4575474,9.47045551 C26.4496226,8.21267874 26.4427203,7.11635783 26.4373519,6.21332555 C26.411788,4.40751566 26.3972165,3.37562429 26.3972165,3.37562429 C26.3841789,2.46138688 25.629788,1.73076093 24.7120436,1.74349404 C23.8109158,1.75622716 23.0874571,2.48379715 23.0739083,3.37562429" id="Fill-11" fill="#1D1D1B"></path>
                    <path d="M20.1337519,5.15836179 L20.1337519,67.8898189" id="Fill-13" fill="#000000"></path>
                    <path d="M18.4720977,5.15836179 C18.4720977,5.15836179 18.4575263,6.13855672 18.4319624,7.85396152 C18.4263383,8.71140926 18.4196917,9.75297779 18.4117669,10.9475983 C18.4048647,12.1422189 18.4061429,13.4898914 18.4130451,14.9600565 C18.4135564,16.4304762 18.4283835,18.0231338 18.4460226,19.7079791 C18.457782,21.3925698 18.485391,23.1690935 18.5173459,25.0069909 C18.5324286,25.9258122 18.5475113,26.8601679 18.5631053,27.8057288 C18.5848346,28.7515443 18.6065639,29.7088197 18.6288045,30.6737349 C18.6753308,32.6033106 18.7123985,34.5637005 18.7760526,36.5240903 C18.8340827,38.4844802 18.8918571,40.4448701 18.9491203,42.3744458 C19.0176316,44.3042762 19.0851203,46.2032925 19.1503083,48.0411898 C19.2246992,49.8790871 19.2965338,51.6556109 19.3645338,53.3402015 C19.4297218,55.0247922 19.514594,56.6177045 19.5810602,58.0878695 C19.656218,59.5582893 19.7252406,60.9059618 19.7863383,62.1005823 C19.8540827,63.2952029 19.9131353,64.3365167 19.9619624,65.1942191 C20.0711203,66.9096239 20.1337519,67.8898189 20.1337519,67.8898189 C20.1337519,67.8898189 20.1963835,66.9096239 20.3055414,65.1942191 C20.3543684,64.3365167 20.4134211,63.2952029 20.4811654,62.1005823 C20.5422632,60.9059618 20.6112857,59.5582893 20.6864436,58.0878695 C20.7529098,56.6177045 20.837782,55.0247922 20.9029699,53.3402015 C20.9709699,51.6556109 21.0428045,49.8790871 21.1171955,48.0411898 C21.1823835,46.2032925 21.2498722,44.3042762 21.3186391,42.3744458 C21.3756466,40.4448701 21.4334211,38.4844802 21.4917068,36.5240903 C21.5551053,34.5637005 21.5921729,32.6033106 21.6386992,30.6737349 C21.6609398,29.7088197 21.6829248,28.7515443 21.7043985,27.8057288 C21.7199925,26.8601679 21.7350752,25.9258122 21.7501579,25.0069909 C21.7821128,23.1690935 21.8097218,21.3925698 21.8214812,19.7079791 C21.8391203,18.0231338 21.8539474,16.4304762 21.8544586,14.9600565 C21.8613609,13.4898914 21.8626391,12.1422189 21.8557368,10.9475983 C21.847812,9.75297779 21.8411654,8.71140926 21.8355414,7.85396152 C21.8099774,6.13855672 21.795406,5.15836179 21.795406,5.15836179 C21.7818571,4.24412437 21.0269549,3.51400775 20.1092105,3.52750485 C19.2088496,3.54074728 18.4861579,4.26780796 18.4720977,5.15836179" id="Fill-15" fill="#1D1D1B"></path>
                    <path d="M15.5319414,7.45047468 L15.5319414,65.5977569" id="Fill-17" fill="#000000"></path>
                    <path d="M13.8702617,7.45047468 C13.8702617,7.45047468 13.8556902,8.35910952 13.8301263,9.94896584 C13.8209233,10.7440213 13.8114647,11.7091912 13.8099308,12.8167172 C13.8030286,13.9239886 13.8043068,15.1731069 13.811209,16.5360592 C13.8117203,17.8987568 13.8265474,19.3752884 13.8441865,20.9368772 C13.8559459,22.4982113 13.8835549,24.145112 13.9155098,25.8485477 C13.9305925,26.7003928 13.9456752,27.5662444 13.9612692,28.4430465 C13.9829985,29.3195939 14.0049835,30.2068371 14.0269684,31.1012109 C14.0734947,32.8899584 14.1105624,34.7069734 14.1742165,36.5239885 C14.2322466,38.3412582 14.2900211,40.1582732 14.3472842,41.9470207 C14.4157955,43.7357682 14.4832842,45.4959936 14.5484722,47.1994293 C14.6228632,48.9031196 14.6946977,50.5497656 14.7626977,52.1113544 C14.8278857,53.6729432 14.9127579,55.1492202 14.9792241,56.5121724 C15.0546376,57.8748701 15.1234045,59.124243 15.1845023,60.2315144 C15.2522466,61.3387857 15.3112992,62.3042103 15.3601263,63.0992658 C15.4695398,64.6891221 15.5319158,65.5977569 15.5319158,65.5977569 C15.5319158,65.5977569 15.5945474,64.6891221 15.7039609,63.0992658 C15.7525323,62.3042103 15.811585,61.3387857 15.8793293,60.2315144 C15.9404271,59.124243 16.0094496,57.8748701 16.0846075,56.5121724 C16.1510737,55.1492202 16.2359459,53.6729432 16.3011338,52.1113544 C16.3693895,50.5497656 16.4409684,48.9031196 16.5153594,47.1994293 C16.580803,45.4959936 16.6480361,43.7357682 16.716803,41.9470207 C16.7738105,40.1582732 16.8318406,38.3412582 16.8898707,36.5239885 C16.9532692,34.7069734 16.9903368,32.8899584 17.0368632,31.1012109 C17.0591038,30.2068371 17.0810887,29.3195939 17.1025624,28.4430465 C17.1181564,27.5662444 17.1332391,26.7003928 17.1483218,25.8485477 C17.1802767,24.145112 17.2078857,22.4982113 17.2196451,20.9368772 C17.2372842,19.3752884 17.2521113,17.8987568 17.2528782,16.5360592 C17.2595248,15.1731069 17.260803,13.9239886 17.2539008,12.8167172 C17.2523669,11.7091912 17.2431639,10.7440213 17.2337053,9.94896584 C17.2081414,8.35910952 17.1935699,7.45047468 17.1935699,7.45047468 C17.1789985,6.53623726 16.4230737,5.80713929 15.5053293,5.82165504 C14.6065023,5.83591612 13.8856,6.56170349 13.8702617,7.45047468" id="Fill-19" fill="#1D1D1B"></path>
                    <path d="M10.9301564,10.7612874 L10.9301564,62.0321801" id="Fill-21" fill="#000000"></path>
                    <path d="M9.26852782,10.7612874 C9.26852782,10.7612874 9.26443759,10.9614519 9.25651278,11.3370787 C9.2501218,11.7127055 9.24066316,12.2632853 9.22839248,12.9643704 C9.21893383,13.6652009 9.20973083,14.5165367 9.20819699,15.4929117 C9.20129474,16.4692867 9.20257293,17.5707009 9.20947519,18.7724519 C9.20998647,19.9739484 9.22481353,21.2757817 9.24245263,22.6527404 C9.25421203,24.0296991 9.28182105,25.4815285 9.31377594,26.983781 C9.32885865,27.7347799 9.34394135,28.4982573 9.35953534,29.2711571 C9.38100902,30.0443117 9.40299398,30.8266341 9.42523459,31.6150683 C9.4717609,33.1921915 9.50882857,34.7945263 9.57222707,36.3966064 C9.63025714,37.9989412 9.68828722,39.601276 9.74529474,41.1783992 C9.81406165,42.7555224 9.88155038,44.3076887 9.94673835,45.8096865 C10.0211293,47.3116844 10.0927083,48.7637684 10.1609639,50.1407271 C10.2261519,51.5176858 10.3110241,52.8195191 10.3774902,54.0210156 C10.4434451,55.2227666 10.5211594,56.3241808 10.5827684,57.3005558 C10.6505128,58.2769308 10.7095654,59.1282666 10.7581368,59.8290971 C10.8675504,61.2310127 10.930182,62.0321801 10.930182,62.0321801 C10.930182,62.0321801 10.9925579,61.2310127 11.1019714,59.8290971 C11.1507985,59.1282666 11.2098511,58.2769308 11.2775955,57.3005558 C11.3392045,56.3241808 11.4169188,55.2227666 11.4828737,54.0210156 C11.5493398,52.8195191 11.634212,51.5176858 11.6994,50.1407271 C11.7674,48.7637684 11.8392346,47.3116844 11.9136256,45.8096865 C11.9788135,44.3076887 12.0463023,42.7555224 12.1148135,41.1783992 C12.1720767,39.601276 12.2298511,37.9989412 12.2878812,36.3966064 C12.3515353,34.7945263 12.388603,33.1921915 12.4351293,31.6150683 C12.4573699,30.8266341 12.4790992,30.0443117 12.5008286,29.2711571 C12.5164226,28.4982573 12.5315053,27.7347799 12.546588,26.983781 C12.5785429,25.4815285 12.6061519,24.0296991 12.6179113,22.6527404 C12.6355504,21.2757817 12.6503774,19.9739484 12.6508887,18.7724519 C12.657791,17.5707009 12.6590692,16.4692867 12.6521669,15.4929117 C12.6506331,14.5165367 12.6414301,13.6652009 12.6319714,12.9643704 C12.6197008,12.2632853 12.6102421,11.7127055 12.6038511,11.3370787 C12.5959263,10.9614519 12.5918361,10.7612874 12.5918361,10.7612874 C12.5729188,9.84705002 11.813415,9.12126265 10.8956707,9.14036232 C10.002212,9.158698 9.28821203,9.87990144 9.26852782,10.7612874" id="Fill-23" fill="#1D1D1B"></path>
                    <path d="M6.32837143,16.1095254 L6.32837143,56.6838403" id="Fill-25" fill="#000000"></path>
                    <path d="M4.66669173,16.1095254 C4.66669173,16.1095254 4.6626015,16.2679253 4.65467669,16.5651161 C4.64777444,16.8623069 4.63243609,17.2982887 4.62655639,17.852943 C4.61709774,18.4075974 4.60789474,19.081179 4.6063609,19.8538242 C4.59945865,20.6267241 4.60073684,21.4984329 4.6076391,22.4493417 C4.60815038,23.4002504 4.62297744,24.4303592 4.64061654,25.5200589 C4.65237594,26.6097586 4.67998496,27.7587945 4.71193985,28.9475579 C4.72702256,29.5419395 4.74210526,30.1459983 4.75769925,30.757697 C4.77942857,31.3693957 4.80115789,31.9887342 4.8233985,32.6126567 C4.86992481,33.8607563 4.90699248,35.1287196 4.97064662,36.3966828 C5.02867669,37.6646461 5.08645113,38.9326093 5.14371429,40.1807089 C5.21222556,41.4288085 5.27971429,42.6572991 5.34490226,43.8458078 C5.41929323,45.0345711 5.49112782,46.1836071 5.55912782,47.2733068 C5.62431579,48.3630065 5.70918797,49.3931152 5.77565414,50.3442786 C5.84160902,51.2951874 5.91932331,52.1668962 5.98093233,52.9395415 C6.04126316,53.7121867 6.10798496,54.3857683 6.15655639,54.9404226 C6.26596992,56.049986 6.32834586,56.6838403 6.32834586,56.6838403 C6.32834586,56.6838403 6.39097744,56.049986 6.50013534,54.9404226 C6.54870677,54.3857683 6.61542857,53.7121867 6.6757594,52.9395415 C6.73736842,52.1668962 6.81508271,51.2951874 6.88103759,50.3442786 C6.94750376,49.3931152 7.03237594,48.3630065 7.09756391,47.2733068 C7.16556391,46.1836071 7.2373985,45.0345711 7.31178947,43.8458078 C7.37697744,42.6572991 7.44446617,41.4288085 7.51323308,40.1807089 C7.5702406,38.9326093 7.62801504,37.6646461 7.68630075,36.3966828 C7.74969925,35.1287196 7.78676692,33.8607563 7.83329323,32.6126567 C7.85553383,31.9887342 7.8775188,31.3693957 7.89899248,30.757697 C7.91458647,30.1459983 7.92966917,29.5419395 7.94475188,28.9475579 C7.97670677,27.7587945 8.00431579,26.6097586 8.01607519,25.5200589 C8.03371429,24.4303592 8.04854135,23.4002504 8.04905263,22.4493417 C8.05595489,21.4984329 8.05723308,20.6267241 8.05033083,19.8538242 C8.04879699,19.081179 8.03959398,18.4075974 8.03013534,17.852943 C8.02425564,17.2982887 8.00891729,16.8623069 8.00201504,16.5651161 C7.99409023,16.2679253 7.99,16.1095254 7.99,16.1095254 C7.96596992,15.195288 7.20237594,14.4735752 6.28488722,14.4975134 C5.39781955,14.5206877 4.69123308,15.2365432 4.66669173,16.1095254" id="Fill-27" fill="#1D1D1B"></path>
                    <path d="M1.7265609,25.0232638 L1.7265609,48.2795282" id="Fill-29" fill="#000000"></path>
                    <g id="Group-33" transform="translate(0.000000, 23.428925)">
                        <mask id="mask-4" fill="white">
                            <use xlink:href="#path-3"></use>
                        </mask>
                        <g id="Clip-32"></g>
                        <path d="M0.064881203,1.59433837 C0.064881203,1.59433837 0.0411067669,1.95774138 0.0247458647,2.59363297 C0.0155428571,2.9117061 0.00608421053,3.29777405 0.00455037594,3.74063167 C-0.0023518797,4.18348929 -0.00107368421,4.68313659 0.00582857143,5.22811377 C0.00633984962,5.77309095 0.0211669173,6.36365267 0.038806015,6.98833912 C0.0505654135,7.61277092 0.0781744361,8.27132745 0.110129323,8.95280359 C0.137227068,9.63402506 0.172249624,10.3381661 0.216730827,11.0535123 C0.262490226,11.7688586 0.307482707,12.4956646 0.36883609,13.2224706 C0.426866165,13.9492766 0.484640602,14.6760826 0.541903759,15.3914288 C0.610415038,16.106775 0.677903759,16.8109161 0.743091729,17.4921376 C0.808535338,18.1736137 0.889828571,18.8321702 0.957317293,19.456602 C1.02250526,20.0812885 1.10737744,20.6718502 1.17409925,21.2168274 C1.2397985,21.7618046 1.31751278,22.2614519 1.3791218,22.7043095 C1.43945263,23.1471671 1.50617444,23.5332351 1.55474586,23.8513082 C1.65725714,24.4871998 1.72653534,24.8506028 1.72653534,24.8506028 C1.72653534,24.8506028 1.79581353,24.4871998 1.89858045,23.8513082 C1.94689624,23.5332351 2.01361805,23.1471671 2.07394887,22.7043095 C2.13555789,22.2614519 2.21327218,21.7618046 2.27922707,21.2168274 C2.34569323,20.6718502 2.43056541,20.0812885 2.49575338,19.456602 C2.56324211,18.8321702 2.64479098,18.1736137 2.70997895,17.4921376 C2.77542256,16.8109161 2.84265564,16.106775 2.91142256,15.3914288 C2.96843008,14.6760826 3.02646015,13.9492766 3.08449023,13.2224706 C3.14558797,12.4956646 3.19058045,11.7688586 3.23633985,11.0535123 C3.28107669,10.3381661 3.31584361,9.63402506 3.34294135,8.95280359 C3.37489624,8.27132745 3.40250526,7.61277092 3.41426466,6.98833912 C3.43190376,6.36365267 3.44673083,5.77309095 3.44749774,5.22811377 C3.45414436,4.68313659 3.45542256,4.18348929 3.4485203,3.74063167 C3.44698647,3.29777405 3.43778346,2.9117061 3.42832481,2.59363297 C3.41196391,1.95774138 3.38818947,1.59433837 3.38818947,1.59433837 C3.32862556,0.680100959 2.53614436,-0.0128349765 1.6184,0.0467559859 C0.773768421,0.101508366 0.117542857,0.774835309 0.064881203,1.59433837" id="Fill-31" fill="#1D1D1B" mask="url(#mask-4)"></path>
                    </g>
                    <path d="M38.5409173,70.4365431 L38.5409173,2.35692443" id="Fill-34" fill="#000000"></path>
                    <path d="M40.2025714,70.4365431 C40.2025714,70.4365431 40.2171429,69.3728189 40.2427068,67.511238 C40.2483308,66.5804475 40.2549774,65.4502566 40.2629023,64.1537711 C40.2698045,62.8572857 40.2685263,61.3947605 40.2616241,59.799047 C40.2611128,58.2035881 40.2462857,56.4749408 40.2286466,54.646466 C40.2168872,52.8182458 40.1892782,50.8901981 40.1573233,48.8956835 C40.1422406,47.8984262 40.1271579,46.8846158 40.1115639,45.858327 C40.0900902,44.8317836 40.0681053,43.7930163 40.0458647,42.7458452 C39.9993383,40.6517577 39.9622707,38.5243094 39.8988722,36.3966064 C39.8405865,34.2691581 39.782812,32.1417098 39.7258045,30.0473676 C39.6570376,27.9532801 39.5895489,25.8922986 39.5243609,23.897784 C39.4499699,21.9032694 39.3781353,19.9752217 39.3101353,18.1467468 C39.2449474,16.3185267 39.1600752,14.5898794 39.093609,12.9944205 C39.029188,11.398707 38.945594,9.9361818 38.8819398,8.63969637 C38.815985,7.34321094 38.7584662,6.21301996 38.7111729,5.2822295 C38.6659248,4.35143904 38.6142857,3.6200491 38.5866767,3.12142045 C38.5570226,2.6227918 38.5409173,2.35692443 38.5409173,2.35692443 C38.5409173,2.35692443 38.5250677,2.6227918 38.4951579,3.12142045 C38.4675489,3.6200491 38.4159098,4.35143904 38.3706617,5.2822295 C38.3233684,6.21301996 38.2658496,7.34321094 38.1998947,8.63969637 C38.1362406,9.9361818 38.0526466,11.398707 37.9882256,12.9944205 C37.9217594,14.5898794 37.8368872,16.3185267 37.7716992,18.1467468 C37.7036992,19.9752217 37.6318647,21.9032694 37.5574737,23.897784 C37.4922857,25.8922986 37.424797,27.9532801 37.3562857,30.0473676 C37.2990226,32.1417098 37.2412481,34.2691581 37.183218,36.3966064 C37.1195639,38.5243094 37.0824962,40.6517577 37.0359699,42.7458452 C37.0137293,43.7930163 36.992,44.8317836 36.9702707,45.858327 C36.9546767,46.8846158 36.939594,47.8984262 36.9245113,48.8956835 C36.8925564,50.8901981 36.8649474,52.8182458 36.853188,54.646466 C36.8355489,56.4749408 36.8207218,58.2035881 36.8202105,59.799047 C36.8133083,61.3947605 36.8120301,62.8572857 36.8189323,64.1537711 C36.8268571,65.4502566 36.8335038,66.5804475 36.8391278,67.511238 C36.8646917,69.3728189 36.8792632,70.4365431 36.8792632,70.4365431 C36.8917895,71.3507805 37.6459248,72.0816611 38.5636692,72.0691826 C39.4653083,72.0569589 40.1895338,71.3291342 40.2025714,70.4365431" id="Fill-36" fill="#1D1D1B"></path>
                    <path d="M43.1427023,69.4178177 L43.1427023,3.37549696" id="Fill-38" fill="#000000"></path>
                    <path d="M44.804382,69.4178177 C44.804382,69.4178177 44.8189534,68.3859264 44.8445173,66.5801165 C44.8498857,65.6770842 44.856788,64.5807633 44.8647128,63.3232412 C44.871615,62.0654644 44.8703368,60.6464865 44.8634346,59.0986494 C44.8629233,57.5508124 44.8480962,55.8741162 44.8304571,54.1003938 C44.8186977,52.326926 44.7910887,50.4564319 44.7591338,48.5217629 C44.7440511,47.5543011 44.7289684,46.5707955 44.7133744,45.5750662 C44.6916451,44.5793369 44.6699158,43.5716384 44.6476752,42.5560454 C44.6011489,40.5243501 44.5640812,38.4605674 44.5004271,36.3967847 C44.442397,34.3330019 44.3846226,32.2689646 44.3273594,30.2375239 C44.2588481,28.2058286 44.1913594,26.2067301 44.1261714,24.2718065 C44.0517805,22.3368828 43.9799459,20.4666434 43.9119459,18.6929209 C43.8467579,16.9194531 43.7618857,15.2425023 43.6954195,13.6946653 C43.6309985,12.1468282 43.5474045,10.7278503 43.4837504,9.47032818 C43.4177955,8.21280607 43.3602767,7.1162305 43.3129835,6.21345288 C43.2677353,5.31042061 43.2160962,4.60093162 43.1884872,4.11732805 C43.1585774,3.6334698 43.1427278,3.37549696 43.1427278,3.37549696 C43.1427278,3.37549696 43.1268782,3.6334698 43.0969684,4.11732805 C43.0693594,4.60093162 43.0177203,5.31042061 42.9724722,6.21345288 C42.9251789,7.1162305 42.8676602,8.21280607 42.8017053,9.47032818 C42.7380511,10.7278503 42.6544571,12.1468282 42.5900361,13.6946653 C42.5235699,15.2425023 42.4386977,16.9194531 42.3735098,18.6929209 C42.3052541,20.4666434 42.2336752,22.3368828 42.1592842,24.2718065 C42.0940962,26.2067301 42.0266075,28.2058286 41.9578406,30.2375239 C41.9008331,32.2689646 41.842803,34.3330019 41.7847729,36.3967847 C41.7213744,38.4605674 41.6843068,40.5243501 41.6377805,42.5560454 C41.6155398,43.5716384 41.5935549,44.5793369 41.5720812,45.5750662 C41.5564872,46.5707955 41.5414045,47.5543011 41.5263218,48.5217629 C41.4943669,50.4564319 41.4667579,52.326926 41.4549985,54.1003938 C41.4373594,55.8741162 41.4225323,57.5508124 41.4220211,59.0986494 C41.4151188,60.6464865 41.4138406,62.0654644 41.4207429,63.3232412 C41.4286677,64.5807633 41.4353143,65.6770842 41.4409383,66.5801165 C41.4665023,68.3859264 41.4810737,69.4178177 41.4810737,69.4178177 C41.4941113,70.3320552 42.2482466,71.0626811 43.165991,71.049948 C44.0673744,71.0372149 44.7908331,70.3096449 44.804382,69.4178177" id="Fill-40" fill="#1D1D1B"></path>
                    <path d="M47.7445128,67.6350802 L47.7445128,4.90362315" id="Fill-42" fill="#000000"></path>
                    <path d="M49.4061414,67.6350802 C49.4061414,67.6350802 49.4207128,66.6548853 49.4462767,64.9394805 C49.4519008,64.0820328 49.4585474,63.0404642 49.4664722,61.8458437 C49.4733744,60.6512232 49.4720962,59.3035506 49.4654496,57.8333856 C49.4646827,56.3629658 49.4498556,54.7703082 49.4322165,53.0854629 C49.4204571,51.4008722 49.3928481,49.6243485 49.3608932,47.7864512 C49.3458105,46.8676298 49.3307278,45.9332741 49.3151338,44.9877132 C49.2936602,44.0418977 49.2716752,43.0846224 49.2494346,42.1197072 C49.2029083,40.1901314 49.1658406,38.2297416 49.1024421,36.2693517 C49.044412,34.3089618 48.986382,32.348572 48.9293744,30.4189962 C48.8606075,28.4891658 48.7933744,26.5901496 48.7279308,24.7522522 C48.6535398,22.9143549 48.5819609,21.1378312 48.5137053,19.4532405 C48.4485173,17.7686498 48.3636451,16.1757376 48.2971789,14.7055725 C48.2220211,13.2351528 48.1529985,11.8874802 48.0919008,10.6928597 C48.0241564,9.49823916 47.9651038,8.45692529 47.9165323,7.59922289 C47.8071188,5.88381809 47.7444872,4.90362315 47.7444872,4.90362315 C47.7444872,4.90362315 47.6821113,5.88381809 47.5726977,7.59922289 C47.5238707,8.45692529 47.464818,9.49823916 47.3970737,10.6928597 C47.3359759,11.8874802 47.267209,13.2351528 47.1917955,14.7055725 C47.1253293,16.1757376 47.0404571,17.7686498 46.9752692,19.4532405 C46.9072692,21.1378312 46.8354346,22.9143549 46.7610436,24.7522522 C46.6958556,26.5901496 46.6283669,28.4891658 46.5598556,30.4189962 C46.5025925,32.348572 46.444818,34.3089618 46.386788,36.2693517 C46.3231338,38.2297416 46.2860662,40.1901314 46.2395398,42.1197072 C46.2175549,43.0846224 46.1955699,44.0418977 46.1738406,44.9877132 C46.1582466,45.9332741 46.1431639,46.8676298 46.1280812,47.7864512 C46.0961263,49.6243485 46.0685173,51.4008722 46.0567579,53.0854629 C46.0391188,54.7703082 46.0242917,56.3629658 46.0237805,57.8333856 C46.0168782,59.3035506 46.0156,60.6512232 46.0225023,61.8458437 C46.0304271,63.0404642 46.0373293,64.0820328 46.0426977,64.9394805 C46.0682617,66.6548853 46.0828331,67.6350802 46.0828331,67.6350802 C46.096382,68.5493177 46.8515398,69.2794343 47.7690286,69.2659372 C48.6693895,69.2526948 49.3920812,68.5256341 49.4061414,67.6350802" id="Fill-44" fill="#1D1D1B"></path>
                    <path d="M52.3462977,65.3429674 L52.3462977,7.19568511" id="Fill-46" fill="#000000"></path>
                    <path d="M54.0079519,65.3429674 C54.0079519,65.3429674 54.0225233,64.4343325 54.0480872,62.8444762 C54.0575459,62.0494207 54.0667489,61.0842508 54.0682827,59.9767248 C54.075185,58.8694534 54.0739068,57.6203352 54.0670045,56.2573829 C54.0664932,54.8946853 54.0516662,53.4181537 54.0340271,51.8565648 C54.0222677,50.2952307 53.9946586,48.64833 53.9627038,46.9448944 C53.9476211,46.0930492 53.9325383,45.2271976 53.9169444,44.3503955 C53.8954707,43.4738481 53.8734857,42.5866049 53.8512451,41.6922311 C53.8047188,39.9034836 53.7676511,38.0864686 53.7042526,36.2694536 C53.6459669,34.4521839 53.5881925,32.6351688 53.531185,30.8464213 C53.462418,29.0576738 53.3949293,27.2974484 53.3297414,25.5940128 C53.2553504,23.8903224 53.1835158,22.2436764 53.1155158,20.6820876 C53.0503278,19.1204988 52.9654556,17.6442219 52.8989895,16.2812696 C52.8238316,14.918572 52.754809,13.6691991 52.6937113,12.5619277 C52.6259669,11.4546563 52.5669143,10.4892318 52.5180872,9.69417628 C52.4089293,8.10431996 52.3462977,7.19568511 52.3462977,7.19568511 C52.3462977,7.19568511 52.2836662,8.10431996 52.1745083,9.69417628 C52.1256812,10.4892318 52.0666286,11.4546563 51.9988842,12.5619277 C51.9377865,13.6691991 51.8687639,14.918572 51.793606,16.2812696 C51.7271398,17.6442219 51.6422677,19.1204988 51.5770797,20.6820876 C51.5090797,22.2436764 51.4372451,23.8903224 51.3628541,25.5940128 C51.2976662,27.2974484 51.2301774,29.0576738 51.1616662,30.8464213 C51.104403,32.6351688 51.0466286,34.4521839 50.9885985,36.2694536 C50.9249444,38.0864686 50.8878767,39.9034836 50.8413504,41.6922311 C50.8191098,42.5866049 50.7973805,43.4738481 50.7756511,44.3503955 C50.7600571,45.2271976 50.7449744,46.0930492 50.7298917,46.9448944 C50.6979368,48.64833 50.6703278,50.2952307 50.6585684,51.8565648 C50.6409293,53.4181537 50.6261023,54.8946853 50.625591,56.2573829 C50.6186887,57.6203352 50.6174105,58.8694534 50.6243128,59.9767248 C50.6258466,61.0842508 50.6350496,62.0494207 50.6445083,62.8444762 C50.6700722,64.4343325 50.6846436,65.3429674 50.6846436,65.3429674 C50.699215,66.2572048 51.4551398,66.9863027 52.3728842,66.971787 C53.2717113,66.9575259 53.9926135,66.2317385 54.0079519,65.3429674" id="Fill-48" fill="#1D1D1B"></path>
                    <path d="M56.9480827,62.0321546 L56.9480827,10.761262" id="Fill-50" fill="#000000"></path>
                    <path d="M58.6097624,62.0321546 C58.6097624,62.0321546 58.6138526,61.8319901 58.6217774,61.4563633 C58.6281684,61.0807365 58.6376271,60.5301568 58.6498977,59.8290716 C58.6593564,59.1282412 58.6685594,58.2769053 58.6700932,57.3005303 C58.6769955,56.3241553 58.6757173,55.2227412 58.668815,54.0209901 C58.6683038,52.8194937 58.6534767,51.5176603 58.6358376,50.1407016 C58.6240782,48.763743 58.5964692,47.3119136 58.5645143,45.8096611 C58.5494316,45.0586621 58.5343489,44.2951848 58.5187549,43.5222849 C58.4970256,42.7491303 58.4752962,41.966808 58.4530556,41.1783737 C58.4065293,39.6012505 58.3694617,37.9989157 58.3058075,36.3968356 C58.2477774,34.7945008 58.190003,33.1921661 58.1327398,31.6150429 C58.0642286,30.0379197 57.9967398,28.4857534 57.9315519,26.9837555 C57.8571609,25.481503 57.7853263,24.0296736 57.7173263,22.6527149 C57.6521383,21.2757562 57.5672662,19.9739229 57.5008,18.7724265 C57.4348451,17.5706754 57.3571308,16.4692612 57.2955218,15.4928862 C57.2277774,14.5165112 57.1687248,13.6651754 57.1198977,12.9643449 C57.0104842,11.5624293 56.9481083,10.761262 56.9481083,10.761262 C56.9481083,10.761262 56.8854767,11.5624293 56.7760632,12.9643449 C56.7274917,13.6651754 56.6684391,14.5165112 56.6006947,15.4928862 C56.5390857,16.4692612 56.4613714,17.5706754 56.3954165,18.7724265 C56.3289504,19.9739229 56.2440782,21.2757562 56.1788902,22.6527149 C56.1106346,24.0296736 56.0390556,25.481503 55.9646647,26.9837555 C55.8994767,28.4857534 55.831988,30.0379197 55.7632211,31.6150429 C55.7062135,33.1921661 55.6481835,34.7945008 55.5901534,36.3968356 C55.5267549,37.9989157 55.4896872,39.6012505 55.4431609,41.1783737 C55.4209203,41.966808 55.3989353,42.7491303 55.3774617,43.5222849 C55.3618677,44.2951848 55.346785,45.0586621 55.3317023,45.8096611 C55.2997474,47.3119136 55.2721383,48.763743 55.2603789,50.1407016 C55.2427398,51.5176603 55.2279128,52.8194937 55.2271459,54.0209901 C55.2204992,55.2227412 55.2192211,56.3241553 55.2261233,57.3005303 C55.2276571,58.2769053 55.2368602,59.1282412 55.2463188,59.8290716 C55.2583338,60.5301568 55.2680481,61.0807365 55.2744391,61.4563633 C55.2823639,61.8319901 55.2864541,62.0321546 55.2864541,62.0321546 C55.3053714,62.946392 56.0648752,63.6721794 56.9826195,63.6530797 C57.8758226,63.634744 58.5900782,62.9135406 58.6097624,62.0321546" id="Fill-52" fill="#1D1D1B"></path>
                    <path d="M61.5498932,56.6839167 L61.5498932,16.1096018" id="Fill-54" fill="#000000"></path>
                    <path d="M63.2115218,56.6839167 C63.2115218,56.6839167 63.215612,56.5255167 63.2235368,56.2283259 C63.2304391,55.9311351 63.2457774,55.4951534 63.2516571,54.940499 C63.2611158,54.3858447 63.2703188,53.7122631 63.2718526,52.9396179 C63.2787549,52.1669726 63.2774767,51.2950092 63.2708301,50.3441004 C63.2700632,49.3931916 63.2552361,48.3630829 63.237597,47.2733832 C63.2258376,46.1836835 63.1982286,45.0346475 63.1662737,43.8458842 C63.151191,43.2515025 63.1361083,42.6474437 63.1205143,42.035745 C63.0990406,41.4240464 63.0770556,40.8047078 63.054815,40.1807853 C63.0082887,38.9326857 62.9712211,37.6647225 62.9078226,36.3967592 C62.8497925,35.128796 62.7917624,33.8608327 62.7347549,32.6127331 C62.665988,31.3646335 62.5987549,30.1361429 62.5333113,28.9476342 C62.4589203,27.7588709 62.3873414,26.609835 62.3190857,25.5201353 C62.2538977,24.4304356 62.1690256,23.4003268 62.1025594,22.4491634 C62.0366045,21.4982546 61.9588902,20.6265458 61.8972812,19.8539006 C61.8369504,19.0812554 61.7702286,18.4076738 61.7219128,17.8530194 C61.6124992,16.7434561 61.5498677,16.1096018 61.5498677,16.1096018 C61.5498677,16.1096018 61.4874917,16.7434561 61.3780782,17.8530194 C61.3295068,18.4076738 61.262785,19.0812554 61.2024541,19.8539006 C61.1408451,20.6265458 61.0631308,21.4982546 60.9971759,22.4491634 C60.9307098,23.4003268 60.8458376,24.4304356 60.7806496,25.5201353 C60.7126496,26.609835 60.640815,27.7588709 60.5664241,28.9476342 C60.5012361,30.1361429 60.4337474,31.3646335 60.3652361,32.6127331 C60.3079729,33.8608327 60.2501985,35.128796 60.1921684,36.3967592 C60.1285143,37.6647225 60.0914466,38.9326857 60.0449203,40.1807853 C60.0229353,40.8047078 60.0009504,41.4240464 59.9792211,42.035745 C59.9636271,42.6474437 59.9485444,43.2515025 59.9334617,43.8458842 C59.9015068,45.0346475 59.8738977,46.1836835 59.8621383,47.2733832 C59.8444992,48.3630829 59.8296722,49.3931916 59.8291609,50.3441004 C59.8222586,51.2950092 59.8209805,52.1669726 59.8278827,52.9396179 C59.8294165,53.7122631 59.8386195,54.3858447 59.8480782,54.940499 C59.8539579,55.4951534 59.8692962,55.9311351 59.8761985,56.2283259 C59.8841233,56.5255167 59.8882135,56.6839167 59.8882135,56.6839167 C59.9122436,57.5981541 60.6758376,58.3198668 61.593582,58.2959286 C62.480394,58.2727543 63.1869805,57.5568988 63.2115218,56.6839167" id="Fill-56" fill="#1D1D1B"></path>
                    <path d="M66.1516782,47.7701783 L66.1516782,24.5139138" id="Fill-58" fill="#000000"></path>
                    <path d="M67.8133323,47.7701783 C67.8133323,47.7701783 67.8371068,47.4067753 67.8534677,46.7708837 C67.8629263,46.4528105 67.8721293,46.0667426 67.8736632,45.623885 C67.8805654,45.1810273 67.8792872,44.68138 67.872385,44.1364029 C67.8718737,43.5914257 67.8570466,43.000864 67.8394075,42.3761775 C67.8276481,41.7517457 67.8000391,41.0931892 67.7680842,40.411713 C67.7409865,39.7304916 67.7059639,39.0263505 67.6614827,38.3110043 C67.6157233,37.5956581 67.5707308,36.8688521 67.5096331,36.1420461 C67.4513474,35.41524 67.3935729,34.688434 67.3363098,33.9730878 C67.2677985,33.2577416 67.2003098,32.5536005 67.1351218,31.8723791 C67.0699338,31.1909029 66.988385,30.5323464 66.9208962,29.9079146 C66.8557083,29.2832281 66.7708361,28.6926664 66.7043699,28.1476892 C66.638415,27.6027121 66.5607008,27.1030648 66.4990917,26.6602071 C66.4387609,26.2173495 66.3720391,25.8312816 66.3234677,25.5132084 C66.2209564,24.8773169 66.1516782,24.5139138 66.1516782,24.5139138 C66.1516782,24.5139138 66.0824,24.8773169 65.9798887,25.5132084 C65.9313173,25.8312816 65.8645955,26.2173495 65.8042647,26.6602071 C65.7426556,27.1030648 65.6649414,27.6027121 65.5989865,28.1476892 C65.5325203,28.6926664 65.4476481,29.2832281 65.3824602,29.9079146 C65.3149714,30.5323464 65.2334226,31.1909029 65.1682346,31.8723791 C65.1030466,32.5536005 65.0355579,33.2577416 64.9670466,33.9730878 C64.9097835,34.688434 64.852009,35.41524 64.7937233,36.1420461 C64.7326256,36.8688521 64.6876331,37.5956581 64.6418737,38.3110043 C64.5973925,39.0263505 64.5623699,39.7304916 64.5352722,40.411713 C64.5033173,41.0931892 64.4757083,41.7517457 64.4639489,42.3761775 C64.4463098,43.000864 64.4314827,43.5914257 64.4309714,44.1364029 C64.4240692,44.68138 64.422791,45.1810273 64.4296932,45.623885 C64.4312271,46.0667426 64.4404301,46.4528105 64.4498887,46.7708837 C64.4662496,47.4067753 64.4900241,47.7701783 64.4900241,47.7701783 C64.5498436,48.6844157 65.3420692,49.3773516 66.2598135,49.3177606 C67.1044451,49.2630083 67.7606707,48.5896813 67.8133323,47.7701783" id="Fill-60" fill="#1D1D1B"></path>
                </g>
            </g>
        </g>
    </g>
</svg>