<?xml version="1.0" encoding="UTF-8" standalone="no"?>
<svg width="74px" height="79px" viewBox="0 0 74 79" version="1.1" xmlns="http://www.w3.org/2000/svg" xmlns:xlink="http://www.w3.org/1999/xlink">
    <!-- Generator: Sketch 39.1 (31720) - http://www.bohemiancoding.com/sketch -->
    <title>Page 1</title>
    <desc>Created with Sketch.</desc>
    <defs>
        <polygon id="path-1" points="3.76004088 0.232597261 0.00221926797 0.232597261 0.00221926797 76.9581739 3.76004088 76.9581739 3.76004088 0.232597261"></polygon>
        <polygon id="path-3" points="0 0.046842731 0 26.9565861 3.75781388 26.9565861 3.75781388 0.046842731"></polygon>
    </defs>
    <g id="Page-1" stroke="none" stroke-width="1" fill="none" fill-rule="evenodd">
        <g id="Ventures:menu-Copy-3" transform="translate(-127.000000, -357.000000)">
            <g id="Page-1" transform="translate(127.000000, 357.000000)">
                <path d="M36.933706,77.0019033 L36.933706,2.04785037 L36.933706,77.0019033 Z" id="Fill-1" fill="#000000"></path>
                <g id="Group-62" transform="translate(0.000000, 0.043647)">
                    <g id="Group-4" transform="translate(35.052632, 0.000000)">
                        <mask id="mask-2" fill="white">
                            <use xlink:href="#path-1"></use>
                        </mask>
                        <g id="Clip-3"></g>
                        <path d="M0.0728593985,2.00412098 C0.0728593985,2.00412098 0.0570022556,3.1753946 0.0291827068,5.22484719 C0.023062406,6.24943536 0.0158293233,7.49391358 0.00720526316,8.92126518 C-0.000306015037,10.3486168 0.00108496241,11.9588418 0.0085962406,13.7157522 C0.00915263158,15.4723864 0.0252879699,17.375706 0.0444834586,19.3884182 C0.0572804511,21.4014066 0.0873255639,23.5240638 0.1221,25.7202018 C0.138513534,26.8179946 0.154927068,27.9342957 0.171896992,29.064409 C0.195265414,30.194246 0.219190226,31.3378953 0.243393233,32.4909368 C0.294024812,34.7964674 0.334363158,37.1387383 0.403355639,39.4812856 C0.466784211,41.8235566 0.529656391,44.1658276 0.59197218,46.4716344 C0.666528571,48.777165 0.73997218,51.0465076 0.81091203,53.2423694 C0.891866917,55.4382312 0.97003985,57.5608884 1.04403985,59.5738768 C1.1149797,61.5868652 1.2073406,63.4899086 1.27967143,65.2465427 C1.34977669,67.0034532 1.44074662,68.6136781 1.51001729,70.0410297 C1.58179173,71.4683813 1.64438571,72.7128596 1.69585188,73.7374477 C1.74509248,74.7623122 1.80128797,75.5675628 1.83133308,76.1164592 C1.86360376,76.6653555 1.88113008,76.9581739 1.88113008,76.9581739 C1.88113008,76.9581739 1.8983782,76.6653555 1.93092707,76.1164592 C1.96097218,75.5675628 2.01716767,74.7623122 2.06640827,73.7374477 C2.11787444,72.7128596 2.18046842,71.4683813 2.25224286,70.0410297 C2.32151353,68.6136781 2.41248346,67.0034532 2.48258872,65.2465427 C2.55491955,63.4899086 2.64728045,61.5868652 2.7182203,59.5738768 C2.7922203,57.5608884 2.87039323,55.4382312 2.95134812,53.2423694 C3.02228797,51.0465076 3.09573158,48.777165 3.17028797,46.4716344 C3.23260376,44.1658276 3.29547594,41.8235566 3.35890451,39.4812856 C3.42789699,37.1387383 3.46823534,34.7964674 3.51886692,32.4909368 C3.54306992,31.3378953 3.56699474,30.194246 3.59036316,29.064409 C3.60733308,27.9342957 3.62374662,26.8179946 3.64016015,25.7202018 C3.67493459,23.5240638 3.7049797,21.4014066 3.71777669,19.3884182 C3.73697218,17.375706 3.75310752,15.4723864 3.75366391,13.7157522 C3.76117519,11.9588418 3.76256617,10.3486168 3.75505489,8.92126518 C3.74643083,7.49391358 3.73919774,6.24943536 3.73307744,5.22484719 C3.70525789,3.1753946 3.68940075,2.00412098 3.68940075,2.00412098 C3.67604737,1.01240582 2.85537068,0.219309935 1.85692707,0.232569637 C0.875453383,0.245829338 0.0870473684,1.0356103 0.0728593985,2.00412098" id="Fill-2" fill="#FFFFFF" mask="url(#mask-2)"></path>
                    </g>
                    <path d="M31.925909,2.55663616 L31.925909,76.405714" id="Fill-5" fill="#FFFFFF"></path>
                    <path d="M30.1176383,2.55663616 C30.1176383,2.55663616 30.1017812,3.71050642 30.0739617,5.72984844 C30.0681195,6.73951945 30.0606083,7.96548933 30.0519842,9.37184641 C30.0444729,10.7782035 30.0458639,12.3646715 30.0533752,14.095615 C30.0539316,15.8262823 30.0700669,17.701425 30.0892624,19.6845791 C30.1020594,21.6680094 30.1321045,23.7594511 30.1668789,25.9229924 C30.1832925,27.004763 30.199706,28.1044895 30.2166759,29.2177519 C30.2403226,30.3312906 30.2642474,31.4580889 30.2881722,32.5940033 C30.3388038,34.8655559 30.3791421,37.1732964 30.4484128,39.4813132 C30.5115632,41.7890537 30.5744353,44.0967942 30.6367511,46.3683468 C30.7113075,48.6401757 30.7847511,50.8758166 30.855691,53.0393578 C30.9366459,55.2028991 31.0148188,57.2943407 31.0888188,59.2777711 C31.1597586,61.2609251 31.2521195,63.1360679 31.3244504,64.8667352 C31.3945556,66.5976787 31.4855256,68.1841467 31.5547962,69.5905038 C31.6265707,70.9968608 31.6891647,72.2228307 31.7406308,73.2325017 C31.7898714,74.2421727 31.8460669,75.0355449 31.876112,75.5764302 C31.9086609,76.1173155 31.925909,76.405714 31.925909,76.405714 C31.925909,76.405714 31.9431571,76.1173155 31.975706,75.5764302 C32.0057511,75.0355449 32.0619466,74.2421727 32.1111872,73.2325017 C32.1626534,72.2228307 32.2252474,70.9968608 32.2970218,69.5905038 C32.3662925,68.1841467 32.4572624,66.5976787 32.5273677,64.8667352 C32.5996985,63.1360679 32.6920594,61.2609251 32.7629992,59.2777711 C32.8372774,57.2943407 32.9151722,55.2028991 32.9961271,53.0393578 C33.0673451,50.8758166 33.1405105,48.6401757 33.2153451,46.3683468 C33.2773827,44.0967942 33.3405331,41.7890537 33.4036835,39.4813132 C33.4726759,37.1732964 33.5130143,34.8655559 33.5636459,32.5940033 C33.5878489,31.4580889 33.6117737,30.3312906 33.6351421,29.2177519 C33.652112,28.1044895 33.6685256,27.004763 33.6849391,25.9229924 C33.7197135,23.7594511 33.7497586,21.6680094 33.7625556,19.6845791 C33.7817511,17.701425 33.7978865,15.8262823 33.7987211,14.095615 C33.8059541,12.3646715 33.8073451,10.7782035 33.7998338,9.37184641 C33.7912098,7.96548933 33.7839767,6.73951945 33.7778564,5.72984844 C33.7500368,3.71050642 33.7341797,2.55663616 33.7341797,2.55663616 C33.7205481,1.564921 32.8998714,0.772101359 31.9011496,0.785637304 C30.9199541,0.798897005 30.1318263,1.58840172 30.1176383,2.55663616" id="Fill-7" fill="#FFFFFF"></path>
                    <path d="M26.9180842,3.66169415 L26.9180842,75.3008218" id="Fill-9" fill="#FFFFFF"></path>
                    <path d="M25.1098414,3.66169415 C25.1098414,3.66169415 25.0939842,4.78103394 25.0661647,6.73987856 C25.0600444,7.719439 25.0528113,8.90866846 25.0441872,10.2730365 C25.0366759,11.6371283 25.0380669,13.1763586 25.0453,14.8553683 C25.0461346,16.5343779 25.0622699,18.353167 25.0814654,20.2772049 C25.0942624,22.2009666 25.1243075,24.2299771 25.159082,26.3286011 C25.1754955,27.3780512 25.191909,28.4449047 25.2088789,29.5250178 C25.2322474,30.605131 25.2561722,31.6982276 25.2803752,32.7998878 C25.3310068,35.0037607 25.3713451,37.2424403 25.4403376,39.4811198 C25.503488,41.7197994 25.5666383,43.9587552 25.6286759,46.1623518 C25.7035105,48.3662247 25.7769541,50.5347384 25.847894,52.6336386 C25.9288489,54.7325388 26.0067436,56.7612731 26.0810218,58.685311 C26.1519617,60.6090727 26.2443226,62.428138 26.3166534,64.1071477 C26.3867586,65.7861573 26.4777286,67.3253877 26.5469992,68.6894794 C26.6187737,70.0535712 26.6813677,71.2430769 26.7328338,72.2223611 C26.7820744,73.2019216 26.8382699,73.9715367 26.868315,74.4961237 C26.9005857,75.0209868 26.918112,75.3008218 26.918112,75.3008218 C26.918112,75.3008218 26.9353602,75.0209868 26.967909,74.4961237 C26.9979541,73.9715367 27.0541496,73.2019216 27.1033902,72.2223611 C27.1548564,71.2430769 27.2174504,70.0535712 27.2892248,68.6894794 C27.3584955,67.3253877 27.4494654,65.7861573 27.5195707,64.1071477 C27.5919015,62.428138 27.6842624,60.6090727 27.7552023,58.685311 C27.8292023,56.7612731 27.9073752,54.7325388 27.9883301,52.6336386 C28.0592699,50.5347384 28.1327135,48.3662247 28.2072699,46.1623518 C28.2695857,43.9587552 28.3324579,41.7197994 28.3956083,39.4811198 C28.4648789,37.2424403 28.5052173,35.0037607 28.5558489,32.7998878 C28.5800519,31.6982276 28.6036985,30.605131 28.6273451,29.5250178 C28.644315,28.4449047 28.6607286,27.3780512 28.6771421,26.3286011 C28.7119165,24.2299771 28.7419617,22.2009666 28.7547586,20.2772049 C28.7739541,18.353167 28.7900895,16.5343779 28.7906459,14.8553683 C28.7981571,13.1763586 28.7995481,11.6371283 28.7920368,10.2730365 C28.7834128,8.90866846 28.7759015,7.719439 28.7700594,6.73987856 C28.7422398,4.78103394 28.7263827,3.66169415 28.7263827,3.66169415 C28.7121947,2.66997899 27.8912398,1.87743559 26.892518,1.89124778 C25.9118789,1.90505996 25.1245857,2.69428844 25.1098414,3.66169415" id="Fill-11" fill="#FFFFFF"></path>
                    <path d="M21.9102594,5.59551109 L21.9102594,73.6431934" id="Fill-13" fill="#FFFFFF"></path>
                    <path d="M20.1019887,5.59551109 C20.1019887,5.59551109 20.0861316,6.65877339 20.058312,8.51955148 C20.0521917,9.44966428 20.0449586,10.5795013 20.0363346,11.8753609 C20.0288233,13.1712205 20.0302143,14.6331025 20.0377256,16.2278579 C20.038282,17.8228894 20.0544173,19.550518 20.0736128,21.3781468 C20.0864098,23.2054994 20.1164549,25.132576 20.1512293,27.1262274 C20.1676429,28.1229149 20.1840564,29.1364533 20.2010263,30.1621465 C20.2246729,31.1881159 20.2483195,32.2265162 20.2725226,33.2732039 C20.3231541,35.366303 20.3634925,37.4928276 20.4327632,39.6193522 C20.4959135,41.7458768 20.5587857,43.8724014 20.6211015,45.9655005 C20.6956579,48.0588759 20.7691015,50.1188257 20.8400414,52.1124771 C20.9209962,54.1061284 20.9991692,56.033205 21.0731692,57.8605576 C21.144109,59.6879102 21.2364699,61.415815 21.3088008,63.0105704 C21.3905902,64.6056019 21.465703,66.067484 21.5321917,67.3633436 C21.6059135,68.6592031 21.6701767,69.7887639 21.723312,70.719153 C21.8421015,72.5799311 21.9102594,73.6431934 21.9102594,73.6431934 C21.9102594,73.6431934 21.9784173,72.5799311 22.0972068,70.719153 C22.1503421,69.7887639 22.2146053,68.6592031 22.2883271,67.3633436 C22.3548158,66.067484 22.4299286,64.6056019 22.511718,63.0105704 C22.5840489,61.415815 22.6764098,59.6879102 22.7473496,57.8605576 C22.8213496,56.033205 22.8995226,54.1061284 22.9804774,52.1124771 C23.0514173,50.1188257 23.1248609,48.0588759 23.1996955,45.9655005 C23.2617331,43.8724014 23.3246053,41.7458768 23.3880338,39.6193522 C23.4570263,37.4928276 23.4973647,35.366303 23.5479962,33.2732039 C23.5721992,32.2265162 23.5961241,31.1881159 23.6194925,30.1621465 C23.6364624,29.1364533 23.6528759,28.1229149 23.6692895,27.1262274 C23.7040639,25.132576 23.734109,23.2054994 23.746906,21.3781468 C23.7661015,19.550518 23.7822368,17.8228894 23.7827932,16.2278579 C23.7903045,14.6331025 23.7916955,13.1712205 23.7841842,11.8753609 C23.7755602,10.5795013 23.7683271,9.44966428 23.7622068,8.51955148 C23.7343872,6.65877339 23.7185301,5.59551109 23.7185301,5.59551109 C23.7037857,4.60379593 22.8822744,3.81180502 21.8835526,3.82644594 C20.9037481,3.84081061 20.1172895,4.6294866 20.1019887,5.59551109" id="Fill-15" fill="#FFFFFF"></path>
                    <path d="M16.9024068,8.08187084 L16.9024068,71.1568889" id="Fill-17" fill="#FFFFFF"></path>
                    <path d="M15.0941083,8.08187084 C15.0941083,8.08187084 15.0782511,9.06750864 15.0504316,10.7920985 C15.0404165,11.6545316 15.0301233,12.7014955 15.0284541,13.9028797 C15.0209429,15.1039877 15.0223338,16.4589634 15.0298451,17.9374201 C15.0304015,19.4156006 15.0465368,21.017262 15.0657323,22.7111888 C15.0785293,24.4048394 15.1085744,26.1913079 15.1433489,28.0391026 C15.1597624,28.963138 15.1761759,29.9023668 15.1931459,30.8534742 C15.2167925,31.8043053 15.2407173,32.7667386 15.2646421,33.7369067 C15.3152737,35.677243 15.355612,37.6482424 15.4248827,39.6192417 C15.4880331,41.5905173 15.5509053,43.5615167 15.6132211,45.501853 C15.6877774,47.4421893 15.7612211,49.3515863 15.8321609,51.1993809 C15.9131158,53.0474518 15.9912887,54.833644 16.0652887,56.5275709 C16.1362286,58.2214977 16.2285895,59.8228829 16.3009203,61.3013396 C16.382988,62.7795201 16.4578226,64.134772 16.5243113,65.33588 C16.5980331,66.5369879 16.6622962,67.5842281 16.7154316,68.4466612 C16.8344992,70.1712511 16.9023789,71.1568889 16.9023789,71.1568889 C16.9023789,71.1568889 16.9705368,70.1712511 17.0896045,68.4466612 C17.1424617,67.5842281 17.2067248,66.5369879 17.2804466,65.33588 C17.3469353,64.134772 17.4220481,62.7795201 17.5038376,61.3013396 C17.5761684,59.8228829 17.6685293,58.2214977 17.7394692,56.5275709 C17.8137474,54.833644 17.8916421,53.0474518 17.972597,51.1993809 C18.043815,49.3515863 18.1169805,47.4421893 18.191815,45.501853 C18.2538526,43.5615167 18.317003,41.5905173 18.3801534,39.6192417 C18.4491459,37.6482424 18.4894842,35.677243 18.5401158,33.7369067 C18.5643188,32.7667386 18.5882436,31.8043053 18.611612,30.8534742 C18.628582,29.9023668 18.6449955,28.963138 18.661409,28.0391026 C18.6961835,26.1913079 18.7262286,24.4048394 18.7390256,22.7111888 C18.7582211,21.017262 18.7743564,19.4156006 18.775191,17.9374201 C18.7824241,16.4589634 18.783815,15.1039877 18.7763038,13.9028797 C18.7746346,12.7014955 18.7646195,11.6545316 18.7543263,10.7920985 C18.7265068,9.06750864 18.7106496,8.08187084 18.7106496,8.08187084 C18.6947925,7.09015567 17.8721684,6.29926974 16.8734466,6.31501563 C15.8953113,6.33048529 15.1108,7.11778005 15.0941083,8.08187084" id="Fill-19" fill="#FFFFFF"></path>
                    <path d="M11.894582,11.6732609 L11.894582,67.2891445" id="Fill-21" fill="#FFFFFF"></path>
                    <path d="M10.0863391,11.6732609 C10.0863391,11.6732609 10.081888,11.8903886 10.0732639,12.2978481 C10.066309,12.7053077 10.0560158,13.3025467 10.0426624,14.0630459 C10.0323692,14.8232687 10.0223541,15.7467517 10.020685,16.8058703 C10.0131737,17.864989 10.0145647,19.0597433 10.0220759,20.3633377 C10.0226323,21.6666558 10.0387677,23.078814 10.0579632,24.5724641 C10.0707602,26.0661143 10.1008053,27.64098 10.1355797,29.2705421 C10.1519932,30.085185 10.1684068,30.9133638 10.1853767,31.7517637 C10.2087451,32.5904398 10.2326699,33.4390607 10.2568729,34.2943114 C10.3075045,36.0050891 10.3478429,37.743215 10.4168353,39.4810646 C10.4799857,41.2191904 10.5431361,42.9573163 10.6051737,44.668094 C10.6800083,46.3788717 10.7534519,48.0625775 10.8243917,49.6918633 C10.9053466,51.3211492 10.9832414,52.8962912 11.0575195,54.3899413 C11.1284594,55.8835914 11.2208203,57.2957496 11.2931511,58.5990677 C11.3649256,59.9026621 11.449497,61.0974164 11.5165421,62.1565351 C11.5902639,63.2156537 11.6545271,64.1391367 11.7073842,64.8993596 C11.8264519,66.4200816 11.8946098,67.2891445 11.8946098,67.2891445 C11.8946098,67.2891445 11.9624895,66.4200816 12.0815571,64.8993596 C12.1346925,64.1391367 12.1989556,63.2156537 12.2726774,62.1565351 C12.3397226,61.0974164 12.424294,59.9026621 12.4960684,58.5990677 C12.5683992,57.2957496 12.6607602,55.8835914 12.7317,54.3899413 C12.8057,52.8962912 12.8838729,51.3211492 12.9648278,49.6918633 C13.0357677,48.0625775 13.1092113,46.3788717 13.1837677,44.668094 C13.2460835,42.9573163 13.3089556,41.2191904 13.372106,39.4810646 C13.4413767,37.743215 13.481715,36.0050891 13.5323466,34.2943114 C13.5565496,33.4390607 13.5801962,32.5904398 13.6038429,31.7517637 C13.6208128,30.9133638 13.6372263,30.085185 13.6536398,29.2705421 C13.6884143,27.64098 13.7184594,26.0661143 13.7312564,24.5724641 C13.7504519,23.078814 13.7665872,21.6666558 13.7671436,20.3633377 C13.7746549,19.0597433 13.7760459,17.864989 13.7685346,16.8058703 C13.7668654,15.7467517 13.7568504,14.8232687 13.7465571,14.0630459 C13.7332038,13.3025467 13.7229105,12.7053077 13.7159556,12.2978481 C13.7073316,11.8903886 13.7028805,11.6732609 13.7028805,11.6732609 C13.682294,10.6815458 12.8557752,9.89425101 11.8570534,9.9149693 C10.8847602,9.93485885 10.1077602,10.7171812 10.0863391,11.6732609" id="Fill-23" fill="#FFFFFF"></path>
                    <path d="M6.88675714,17.4747394 L6.88675714,61.4875555" id="Fill-25" fill="#FFFFFF"></path>
                    <path d="M5.07845865,17.4747394 C5.07845865,17.4747394 5.07400752,17.646563 5.06538346,17.9689395 C5.05787218,18.291316 5.04118045,18.7642453 5.03478195,19.3659043 C5.02448872,19.9675632 5.01447368,20.698228 5.01280451,21.5363517 C5.00529323,22.3747515 5.00668421,23.320334 5.01419549,24.3518282 C5.01475188,25.3833225 5.03088722,26.5007286 5.05008271,27.6827757 C5.0628797,28.8648228 5.09292481,30.1112348 5.12769925,31.4007407 C5.14411278,32.0454937 5.16052632,32.7007439 5.17749624,33.3642815 C5.20114286,34.027819 5.22478947,34.6996439 5.24899248,35.3764412 C5.29962406,36.7303119 5.33996241,38.1057297 5.40923308,39.4811475 C5.47238346,40.8565652 5.53525564,42.231983 5.59757143,43.5858538 C5.67212782,44.9397245 5.74557143,46.2723245 5.81651128,47.5615542 C5.89746617,48.8510602 5.9756391,50.0974721 6.0496391,51.2795192 C6.12057895,52.4615663 6.21293985,53.5789724 6.28527068,54.6107429 C6.35704511,55.6422372 6.44161654,56.5878196 6.50866165,57.4259433 C6.57431579,58.2640669 6.64692481,58.9947317 6.69978195,59.5963906 C6.81884962,60.7999848 6.88672932,61.4875555 6.88672932,61.4875555 C6.88672932,61.4875555 6.95488722,60.7999848 7.07367669,59.5963906 C7.12653383,58.9947317 7.19914286,58.2640669 7.26479699,57.4259433 C7.33184211,56.5878196 7.41641353,55.6422372 7.48818797,54.6107429 C7.5605188,53.5789724 7.6528797,52.4615663 7.72381955,51.2795192 C7.79781955,50.0974721 7.87599248,48.8510602 7.95694737,47.5615542 C8.02788722,46.2723245 8.10133083,44.9397245 8.17616541,43.5858538 C8.23820301,42.231983 8.30107519,40.8565652 8.36450376,39.4811475 C8.43349624,38.1057297 8.47383459,36.7303119 8.52446617,35.3764412 C8.54866917,34.6996439 8.57259398,34.027819 8.59596241,33.3642815 C8.61293233,32.7007439 8.62934586,32.0454937 8.6457594,31.4007407 C8.68053383,30.1112348 8.71057895,28.8648228 8.72337594,27.6827757 C8.74257143,26.5007286 8.75870677,25.3833225 8.75926316,24.3518282 C8.76677444,23.320334 8.76816541,22.3747515 8.76065414,21.5363517 C8.75898496,20.698228 8.74896992,19.9675632 8.73867669,19.3659043 C8.7322782,18.7642453 8.71558647,18.291316 8.70807519,17.9689395 C8.69945113,17.646563 8.695,17.4747394 8.695,17.4747394 C8.66884962,16.4830242 7.8378797,15.7001494 6.83943609,15.7261163 C5.87409774,15.7512545 5.10516541,16.5277757 5.07845865,17.4747394" id="Fill-27" fill="#FFFFFF"></path>
                    <path d="M1.87890451,27.1438794 L1.87890451,52.3710136" id="Fill-29" fill="#FFFFFF"></path>
                    <g id="Group-33" transform="translate(0.000000, 25.414428)">
                        <mask id="mask-4" fill="white">
                            <use xlink:href="#path-3"></use>
                        </mask>
                        <g id="Clip-32"></g>
                        <path d="M0.070606015,1.7294518 C0.070606015,1.7294518 0.0447338346,2.12365167 0.0269293233,2.81343238 C0.0169142857,3.15846086 0.00662105263,3.57724642 0.0049518797,4.05763435 C-0.00255939849,4.53802228 -0.00116842105,5.08001258 0.00634285714,5.67117426 C0.00689924812,6.26233595 0.0230345865,6.90294527 0.0422300752,7.58057125 C0.0550270677,8.257921 0.0850721805,8.97228741 0.119846617,9.71151575 C0.149335338,10.4504679 0.18744812,11.2142819 0.235854135,11.9902507 C0.285651128,12.7662194 0.334613534,13.5546192 0.401380451,14.3430189 C0.464530827,15.1314187 0.527403008,15.9198184 0.589718797,16.6957872 C0.664275188,17.471756 0.737718797,18.23557 0.808658647,18.9745221 C0.879876692,19.7137505 0.968342857,20.4281169 1.04178647,21.1054666 C1.11272632,21.7830926 1.20508722,22.4237019 1.27769624,23.0148636 C1.34919248,23.6060253 1.43376391,24.1480156 1.50080902,24.6284035 C1.56646316,25.1087914 1.63907218,25.527577 1.69192932,25.8726055 C1.80348571,26.5623862 1.87887669,26.9565861 1.87887669,26.9565861 C1.87887669,26.9565861 1.95426767,26.5623862 2.06610226,25.8726055 C2.1186812,25.527577 2.19129023,25.1087914 2.25694436,24.6284035 C2.32398947,24.1480156 2.4085609,23.6060253 2.48033534,23.0148636 C2.55266617,22.4237019 2.64502707,21.7830926 2.71596692,21.1054666 C2.78941053,20.4281169 2.87815489,19.7137505 2.94909474,18.9745221 C3.02031278,18.23557 3.0934782,17.471756 3.16831278,16.6957872 C3.23035038,15.9198184 3.29350075,15.1314187 3.35665113,14.3430189 C3.42313985,13.5546192 3.47210226,12.7662194 3.52189925,11.9902507 C3.57058346,11.2142819 3.60841805,10.4504679 3.63790677,9.71151575 C3.6726812,8.97228741 3.70272632,8.257921 3.71552331,7.58057125 C3.7347188,6.90294527 3.75085414,6.26233595 3.75168872,5.67117426 C3.7589218,5.08001258 3.76031278,4.53802228 3.7528015,4.05763435 C3.75113233,3.57724642 3.74111729,3.15846086 3.73082406,2.81343238 C3.71301955,2.12365167 3.68714737,1.7294518 3.68714737,1.7294518 C3.62232782,0.737736633 2.7599218,-0.0139226864 1.7612,0.0507183576 C0.842042105,0.11011077 0.127914286,0.840499318 0.070606015,1.7294518" id="Fill-31" fill="#FFFFFF" mask="url(#mask-4)"></path>
                    </g>
                    <path d="M41.9415865,76.4057416 L41.9415865,2.55666379" id="Fill-34" fill="#FFFFFF"></path>
                    <path d="M43.7498571,76.4057416 C43.7498571,76.4057416 43.7657143,75.2518714 43.7935338,73.2325294 C43.7996541,72.2228584 43.8068872,70.9968885 43.8155113,69.5905314 C43.8230226,68.1841743 43.8216316,66.5977063 43.8141203,64.8667628 C43.8135639,63.1360955 43.7974286,61.2609528 43.7782331,59.2775224 C43.7654361,57.2943684 43.735391,55.2029267 43.7006165,53.0393854 C43.684203,51.9576148 43.6677895,50.8578883 43.6508195,49.7446259 C43.6274511,48.6310872 43.6035263,47.5042889 43.5793233,46.3683745 C43.5286917,44.0968219 43.4883534,41.7890814 43.4193609,39.4810646 C43.3559323,37.1733241 43.2930602,34.8655836 43.2310226,32.5937547 C43.156188,30.3222021 43.0827444,28.0865612 43.0118045,25.92302 C42.9308496,23.7594787 42.8526767,21.6680371 42.7786767,19.6846067 C42.7077368,17.7014527 42.6153759,15.8263099 42.5430451,14.0956426 C42.4729398,12.3646991 42.3819699,10.7782311 42.3126992,9.37187403 C42.2409248,7.96551696 42.1783308,6.73954707 42.1268647,5.72987606 C42.0776241,4.72020506 42.0214286,3.92683293 41.9913835,3.38594761 C41.9591128,2.84506229 41.9415865,2.55666379 41.9415865,2.55666379 C41.9415865,2.55666379 41.9243383,2.84506229 41.8917895,3.38594761 C41.8617444,3.92683293 41.8055489,4.72020506 41.7563083,5.72987606 C41.7048421,6.73954707 41.6422481,7.96551696 41.5704737,9.37187403 C41.501203,10.7782311 41.4102331,12.3646991 41.3401278,14.0956426 C41.267797,15.8263099 41.1754361,17.7014527 41.1044962,19.6846067 C41.0304962,21.6680371 40.9523233,23.7594787 40.8713684,25.92302 C40.8004286,28.0865612 40.726985,30.3222021 40.6524286,32.5937547 C40.5901128,34.8655836 40.5272406,37.1733241 40.4640902,39.4810646 C40.3948195,41.7890814 40.3544812,44.0968219 40.3038496,46.3683745 C40.2796466,47.5042889 40.256,48.6310872 40.2323534,49.7446259 C40.2153835,50.8578883 40.1989699,51.9576148 40.1825564,53.0393854 C40.147782,55.2029267 40.1177368,57.2943684 40.1049398,59.2775224 C40.0857444,61.2609528 40.069609,63.1360955 40.0690526,64.8667628 C40.0615414,66.5977063 40.0601504,68.1841743 40.0676617,69.5905314 C40.0762857,70.9968885 40.0835188,72.2228584 40.0896391,73.2325294 C40.1174586,75.2518714 40.1333158,76.4057416 40.1333158,76.4057416 C40.1469474,77.3974568 40.9676241,78.1902764 41.9663459,78.1767405 C42.9475414,78.1634808 43.7356692,77.3739761 43.7498571,76.4057416" id="Fill-36" fill="#FFFFFF"></path>
                    <path d="M46.9494113,75.3006837 L46.9494113,3.66155603" id="Fill-38" fill="#FFFFFF"></path>
                    <path d="M48.7577098,75.3006837 C48.7577098,75.3006837 48.7735669,74.1813439 48.8013865,72.2224992 C48.8072286,71.2429388 48.8147398,70.0537093 48.8233639,68.6896176 C48.8308752,67.3252495 48.8294842,65.7860192 48.8219729,64.1070095 C48.8214165,62.4279999 48.8052812,60.6092108 48.7860857,58.6851729 C48.7732887,56.7614112 48.7432436,54.7324007 48.7084692,52.6337767 C48.6920556,51.5843266 48.6756421,50.5174731 48.6586722,49.43736 C48.6350256,48.3572468 48.6113789,47.2641502 48.5871759,46.16249 C48.5365444,43.9586171 48.496206,41.7199375 48.4269353,39.481258 C48.363785,37.2425784 48.3009128,35.0036226 48.238597,32.800026 C48.1640406,30.5961531 48.090597,28.4276394 48.0196571,26.3287392 C47.9387023,24.229839 47.8605293,22.2011047 47.7865293,20.2770668 C47.7155895,18.3533051 47.6232286,16.5342398 47.5508977,14.8552301 C47.4807925,13.1762205 47.3898226,11.6369901 47.3205519,10.2728984 C47.2487774,8.90880659 47.1861835,7.71930088 47.1347173,6.74001669 C47.0854767,5.76045625 47.0292812,4.99084108 46.9992361,4.46625415 C46.9666872,3.94139097 46.9494391,3.66155603 46.9494391,3.66155603 C46.9494391,3.66155603 46.932191,3.94139097 46.8996421,4.46625415 C46.869597,4.99084108 46.8134015,5.76045625 46.7641609,6.74001669 C46.7126947,7.71930088 46.6501008,8.90880659 46.5783263,10.2728984 C46.5090556,11.6369901 46.4180857,13.1762205 46.3479805,14.8552301 C46.2756496,16.5342398 46.1832887,18.3533051 46.1123489,20.2770668 C46.0380707,22.2011047 45.9601759,24.229839 45.8792211,26.3287392 C45.8082812,28.4276394 45.7348376,30.5961531 45.660003,32.800026 C45.5979654,35.0036226 45.534815,37.2425784 45.4716647,39.481258 C45.4026722,41.7199375 45.3623338,43.9586171 45.3117023,46.16249 C45.2874992,47.2641502 45.2635744,48.3572468 45.240206,49.43736 C45.2232361,50.5174731 45.2068226,51.5843266 45.190409,52.6337767 C45.1556346,54.7324007 45.1255895,56.7614112 45.1127925,58.6851729 C45.093597,60.6092108 45.0774617,62.4279999 45.0769053,64.1070095 C45.069394,65.7860192 45.068003,67.3252495 45.0755143,68.6896176 C45.0841383,70.0537093 45.0913714,71.2429388 45.0974917,72.2224992 C45.1253113,74.1813439 45.1411684,75.3006837 45.1411684,75.3006837 C45.1553564,76.2923988 45.9760331,77.0849422 46.9747549,77.07113 C47.9556722,77.0573178 48.7429654,76.2680894 48.7577098,75.3006837" id="Fill-40" fill="#FFFFFF"></path>
                    <path d="M51.9572639,73.3668667 L51.9572639,5.31918444" id="Fill-42" fill="#FFFFFF"></path>
                    <path d="M53.7655068,73.3668667 C53.7655068,73.3668667 53.7813639,72.3036044 53.8091835,70.4428263 C53.8153038,69.5127135 53.8225368,68.3828765 53.8311609,67.0870169 C53.8386722,65.7911573 53.8372812,64.3292753 53.8300481,62.7345199 C53.8292135,61.1394884 53.8130782,59.4118598 53.7938827,57.584231 C53.7810857,55.7568784 53.7510406,53.8298018 53.7162662,51.8361504 C53.6998526,50.8394629 53.6834391,49.8259245 53.6664692,48.8002313 C53.6431008,47.7742619 53.6191759,46.7358616 53.5949729,45.6891739 C53.5443414,43.5960748 53.504003,41.4695502 53.4350105,39.3430256 C53.3718602,37.216501 53.3087098,35.0899764 53.2466722,32.9968773 C53.1718376,30.9035019 53.0986722,28.8435521 53.0274541,26.8499007 C52.9464992,24.8562494 52.8686045,22.9291728 52.7943263,21.1018202 C52.7233865,19.2744676 52.6310256,17.5465628 52.5586947,15.9518074 C52.4769053,14.3567759 52.4017925,12.8948938 52.3353038,11.5990342 C52.261582,10.3031747 52.1973188,9.17361387 52.1444617,8.24322483 C52.025394,6.38244674 51.9572361,5.31918444 51.9572361,5.31918444 C51.9572361,5.31918444 51.8893564,6.38244674 51.7702887,8.24322483 C51.7171534,9.17361387 51.6528902,10.3031747 51.5791684,11.5990342 C51.5126797,12.8948938 51.4378451,14.3567759 51.3557774,15.9518074 C51.2834466,17.5465628 51.1910857,19.2744676 51.1201459,21.1018202 C51.0461459,22.9291728 50.9679729,24.8562494 50.887018,26.8499007 C50.8160782,28.8435521 50.7426346,30.9035019 50.6680782,32.9968773 C50.6057624,35.0899764 50.5428902,37.216501 50.4797398,39.3430256 C50.4104692,41.4695502 50.3701308,43.5960748 50.3194992,45.6891739 C50.2955744,46.7358616 50.2716496,47.7742619 50.248003,48.8002313 C50.2310331,49.8259245 50.2146195,50.8394629 50.198206,51.8361504 C50.1634316,53.8298018 50.1333865,55.7568784 50.1205895,57.584231 C50.101394,59.4118598 50.0852586,61.1394884 50.0847023,62.7345199 C50.077191,64.3292753 50.0758,65.7911573 50.0833113,67.0870169 C50.0919353,68.3828765 50.0994466,69.5127135 50.1052887,70.4428263 C50.1331083,72.3036044 50.1489654,73.3668667 50.1489654,73.3668667 C50.1637098,74.3585819 50.9854992,75.1505728 51.9839429,75.1359319 C52.9637474,75.1215672 53.750206,74.3328912 53.7655068,73.3668667" id="Fill-44" fill="#FFFFFF"></path>
                    <path d="M56.9650887,70.880507 L56.9650887,7.80548894" id="Fill-46" fill="#FFFFFF"></path>
                    <path d="M58.7733594,70.880507 C58.7733594,70.880507 58.7892165,69.8948692 58.8170361,68.1702793 C58.8273293,67.3078462 58.8373444,66.2608823 58.8390135,65.0594981 C58.8465248,63.8583901 58.8451338,62.5034144 58.8376226,61.0249577 C58.8370662,59.5467772 58.8209308,57.9451158 58.8017353,56.251189 C58.7889383,54.5575384 58.7588932,52.7710699 58.7241188,50.9232752 C58.7077053,49.9992398 58.6912917,49.060011 58.6743218,48.1089036 C58.6509534,47.1580725 58.6270286,46.1956392 58.6028256,45.2254711 C58.552194,43.2851348 58.5118556,41.3141354 58.4428632,39.3431361 C58.3794346,37.3718605 58.3165624,35.4008611 58.2545248,33.4605248 C58.1796902,31.5201885 58.1062466,29.6107915 58.0353068,27.7629969 C57.9543519,25.914926 57.8761789,24.1287338 57.8021789,22.4348069 C57.7312391,20.7408801 57.6388782,19.1394949 57.5665474,17.6610382 C57.4847579,16.1828577 57.4096451,14.8276058 57.3431564,13.6264978 C57.2694346,12.4253899 57.2051714,11.3781497 57.1520361,10.5157166 C57.0332466,8.79112674 56.9650887,7.80548894 56.9650887,7.80548894 C56.9650887,7.80548894 56.8969308,8.79112674 56.7781414,10.5157166 C56.725006,11.3781497 56.6607429,12.4253899 56.5870211,13.6264978 C56.5205323,14.8276058 56.4454195,16.1828577 56.3636301,17.6610382 C56.2912992,19.1394949 56.1989383,20.7408801 56.1279985,22.4348069 C56.0539985,24.1287338 55.9758256,25.914926 55.8948707,27.7629969 C55.8239308,29.6107915 55.7504872,31.5201885 55.6759308,33.4605248 C55.613615,35.4008611 55.5507429,37.3718605 55.4875925,39.3431361 C55.4183218,41.3141354 55.3779835,43.2851348 55.3273519,45.2254711 C55.3031489,46.1956392 55.2795023,47.1580725 55.2558556,48.1089036 C55.2388857,49.060011 55.2224722,49.9992398 55.2060586,50.9232752 C55.1712842,52.7710699 55.1412391,54.5575384 55.1284421,56.251189 C55.1092466,57.9451158 55.0931113,59.5467772 55.0925549,61.0249577 C55.0850436,62.5034144 55.0836526,63.8583901 55.0911639,65.0594981 C55.0928331,66.2608823 55.1028481,67.3078462 55.1131414,68.1702793 C55.1409609,69.8948692 55.156818,70.880507 55.156818,70.880507 C55.1726752,71.8722221 55.9952992,72.6631081 56.9940211,72.6473622 C57.9721564,72.6318925 58.7566677,71.8445977 58.7733594,70.880507" id="Fill-48" fill="#FFFFFF"></path>
                    <path d="M61.9729135,67.2891169 L61.9729135,11.6732333" id="Fill-50" fill="#FFFFFF"></path>
                    <path d="M63.781212,67.2891169 C63.781212,67.2891169 63.7856632,67.0719892 63.7942872,66.6645297 C63.8012421,66.2570701 63.8115353,65.6598311 63.8248887,64.8993319 C63.835182,64.1391091 63.845197,63.2156261 63.8468662,62.1565075 C63.8543774,61.0973888 63.8529865,59.9026345 63.8454752,58.5990401 C63.8449188,57.295722 63.8287835,55.8835638 63.809588,54.3899137 C63.796791,52.8962635 63.7667459,51.3213978 63.7319714,49.6918357 C63.7155579,48.8771928 63.6991444,48.049014 63.6821744,47.2106141 C63.6585278,46.371938 63.6348812,45.5233171 63.6106782,44.6680664 C63.5600466,42.9572887 63.5197083,41.2191628 63.4504376,39.4813132 C63.3872872,37.7431874 63.324415,36.0050615 63.2620992,34.2942838 C63.1875429,32.5835061 63.1140992,30.8998003 63.0431594,29.2705145 C62.9622045,27.6409524 62.8840316,26.0660866 62.8100316,24.5724365 C62.7390917,23.0787864 62.6467308,21.6666282 62.5744,20.3633101 C62.5026256,19.0597157 62.4180541,17.8649614 62.351009,16.8058427 C62.2772872,15.7467241 62.2130241,14.8232411 62.1598887,14.0630182 C62.0408211,12.5422962 61.9729414,11.6732333 61.9729414,11.6732333 C61.9729414,11.6732333 61.9047835,12.5422962 61.7857158,14.0630182 C61.7328586,14.8232411 61.6685955,15.7467241 61.5948737,16.8058427 C61.5278286,17.8649614 61.4432571,19.0597157 61.3714827,20.3633101 C61.2991519,21.6666282 61.206791,23.0787864 61.1358511,24.5724365 C61.0615729,26.0660866 60.9836782,27.6409524 60.9027233,29.2705145 C60.8317835,30.8998003 60.7583398,32.5835061 60.6835053,34.2942838 C60.6214677,36.0050615 60.5583173,37.7431874 60.4951669,39.4813132 C60.4261744,41.2191628 60.3858361,42.9572887 60.3352045,44.6680664 C60.3110015,45.5233171 60.2870767,46.371938 60.2637083,47.2106141 C60.2467383,48.049014 60.2303248,48.8771928 60.2139113,49.6918357 C60.1791368,51.3213978 60.1490917,52.8962635 60.1362947,54.3899137 C60.1170992,55.8835638 60.1009639,57.295722 60.1001293,58.5990401 C60.0928962,59.9026345 60.0915053,61.0973888 60.0990165,62.1565075 C60.1006857,63.2156261 60.1107008,64.1391091 60.120994,64.8993319 C60.1340692,65.6598311 60.1446406,66.2570701 60.1515955,66.6645297 C60.1602195,67.0719892 60.1646707,67.2891169 60.1646707,67.2891169 C60.1852571,68.280832 61.0117759,69.0681268 62.0104977,69.0474085 C62.9825128,69.027519 63.759791,68.2451966 63.781212,67.2891169" id="Fill-52" fill="#FFFFFF"></path>
                    <path d="M66.9807662,61.4876384 L66.9807662,17.4748223" id="Fill-54" fill="#FFFFFF"></path>
                    <path d="M68.789009,61.4876384 C68.789009,61.4876384 68.7934602,61.3158148 68.8020842,60.9934383 C68.8095955,60.6710618 68.8262872,60.1981325 68.8326857,59.5964735 C68.8429789,58.9948146 68.852994,58.2641498 68.8546632,57.4260261 C68.8621744,56.5879025 68.8607835,55.6420438 68.8535504,54.6105496 C68.8527158,53.5790553 68.8365805,52.4616492 68.817385,51.2796021 C68.804588,50.097555 68.7745429,48.851143 68.7397684,47.5616371 C68.7233549,46.9168841 68.7069414,46.2616339 68.6899714,45.5980963 C68.666603,44.9345588 68.6426782,44.2627339 68.6184752,43.5859366 C68.5678436,42.2320659 68.5275053,40.8566481 68.4585128,39.4812303 C68.3953624,38.1058126 68.332212,36.7303948 68.2701744,35.376524 C68.1953398,34.0226533 68.1221744,32.6900533 68.0509564,31.4008236 C67.9700015,30.1113176 67.8921068,28.8649057 67.8178286,27.6828586 C67.7468887,26.5008115 67.6545278,25.3834054 67.582197,24.3516349 C67.5104226,23.3201406 67.4258511,22.3745582 67.358806,21.5364345 C67.2931519,20.6983109 67.2205429,19.9676461 67.1679639,19.3659872 C67.0488962,18.162393 66.9807383,17.4748223 66.9807383,17.4748223 C66.9807383,17.4748223 66.9128586,18.162393 66.793791,19.3659872 C66.7409338,19.9676461 66.6683248,20.6983109 66.6026707,21.5364345 C66.5356256,22.3745582 66.4510541,23.3201406 66.3792797,24.3516349 C66.3069489,25.3834054 66.214588,26.5008115 66.1436481,27.6828586 C66.0696481,28.8649057 65.9914752,30.1113176 65.9105203,31.4008236 C65.8395805,32.6900533 65.7661368,34.0226533 65.6915805,35.376524 C65.6292647,36.7303948 65.5663925,38.1058126 65.5032421,39.4812303 C65.4339714,40.8566481 65.3936331,42.2320659 65.3430015,43.5859366 C65.3190767,44.2627339 65.2951519,44.9345588 65.2715053,45.5980963 C65.2545353,46.2616339 65.2381218,46.9168841 65.2217083,47.5616371 C65.1869338,48.851143 65.1568887,50.097555 65.1440917,51.2796021 C65.1248962,52.4616492 65.1087609,53.5790553 65.1082045,54.6105496 C65.1006932,55.6420438 65.0993023,56.5879025 65.1068135,57.4260261 C65.1084827,58.2641498 65.1184977,58.9948146 65.128791,59.5964735 C65.1351895,60.1981325 65.1518812,60.6710618 65.1593925,60.9934383 C65.1680165,61.3158148 65.1724677,61.4876384 65.1724677,61.4876384 C65.198618,62.4793536 66.029588,63.2622284 67.0283098,63.2362615 C67.9933699,63.2111233 68.7623023,62.4346021 68.789009,61.4876384" id="Fill-56" fill="#FFFFFF"></path>
                    <path d="M71.988591,51.8184984 L71.988591,26.5913642" id="Fill-58" fill="#FFFFFF"></path>
                    <path d="M73.7968617,51.8184984 C73.7968617,51.8184984 73.8227338,51.4242986 73.8405383,50.7345179 C73.8508316,50.3894894 73.8608466,49.9707038 73.8625158,49.4903159 C73.8700271,49.009928 73.8686361,48.4679377 73.8611248,47.876776 C73.8605684,47.2856143 73.8444331,46.645005 73.8252376,45.967379 C73.8124406,45.2900292 73.7823955,44.5756628 73.7476211,43.8364345 C73.7181323,43.0974824 73.6800195,42.3336683 73.6316135,41.5576996 C73.5818165,40.7817308 73.5328541,39.9933311 73.4663654,39.2049313 C73.4029368,38.4165316 73.3400647,37.6281318 73.2777489,36.8521631 C73.2031925,36.0761943 73.1297489,35.3123802 73.058809,34.5734281 C72.9878692,33.8341998 72.8991248,33.1198334 72.8256812,32.4424836 C72.7547414,31.7648576 72.6623805,31.1242483 72.5900496,30.5330866 C72.5182752,29.941925 72.4337038,29.3999347 72.3666586,28.9195467 C72.3010045,28.4391588 72.2283955,28.0203732 72.1755383,27.6753448 C72.063982,26.985564 71.988591,26.5913642 71.988591,26.5913642 C71.988591,26.5913642 71.9132,26.985564 71.8016436,27.6753448 C71.7487865,28.0203732 71.6761774,28.4391588 71.6105233,28.9195467 C71.5434782,29.3999347 71.4589068,29.941925 71.3871323,30.5330866 C71.3148015,31.1242483 71.2224406,31.7648576 71.1515008,32.4424836 C71.0780571,33.1198334 70.9893128,33.8341998 70.9183729,34.5734281 C70.8474331,35.3123802 70.7739895,36.0761943 70.6994331,36.8521631 C70.6371173,37.6281318 70.5742451,38.4165316 70.5108165,39.2049313 C70.4443278,39.9933311 70.3953654,40.7817308 70.3455684,41.5576996 C70.2971624,42.3336683 70.2590496,43.0974824 70.2295609,43.8364345 C70.1947865,44.5756628 70.1647414,45.2900292 70.1519444,45.967379 C70.1327489,46.645005 70.1166135,47.2856143 70.1160571,47.876776 C70.1085459,48.4679377 70.1071549,49.009928 70.1146662,49.4903159 C70.1163353,49.9707038 70.1263504,50.3894894 70.1366436,50.7345179 C70.1544481,51.4242986 70.1803203,51.8184984 70.1803203,51.8184984 C70.245418,52.8102136 71.1075459,53.5618729 72.1062677,53.4972319 C73.0254256,53.4378395 73.7395534,52.7074509 73.7968617,51.8184984" id="Fill-60" fill="#FFFFFF"></path>
                </g>
            </g>
        </g>
    </g>
</svg>