<?xml version="1.0" encoding="UTF-8" standalone="no"?>
<svg width="157px" height="18px" viewBox="0 0 157 18" version="1.1" xmlns="http://www.w3.org/2000/svg" xmlns:xlink="http://www.w3.org/1999/xlink">
    <!-- Generator: Sketch 39.1 (31720) - http://www.bohemiancoding.com/sketch -->
    <title>Page 1</title>
    <desc>Created with Sketch.</desc>
    <defs>
        <polygon id="path-1" points="0 17.8974 156.802085 17.8974 156.802085 4.86486486e-05 0 4.86486486e-05"></polygon>
    </defs>
    <g id="Symbols" stroke="none" stroke-width="1" fill="none" fill-rule="evenodd">
        <g id="menu" transform="translate(-57.000000, -115.000000)">
            <g id="Page-1" transform="translate(57.000000, 115.000000)">
                <path d="M11.02768,5.47170811 C11.02768,3.9023027 10.260283,2.3543027 8.91721939,1.54770811 C7.63790727,0.806302703 6.10311333,0.784897297 4.67441333,0.784897297 L9.51515158e-05,0.784897297 L9.51515158e-05,17.2218162 L2.00398606,17.2218162 L2.00398606,10.2674919 L2.00398606,8.56722162 L2.00398606,2.61603243 L4.78145879,2.61603243 C6.76394061,2.61603243 9.15176788,2.98673514 9.15176788,5.55878919 C9.15176788,8.17462703 6.93426182,8.56722162 4.88802848,8.56722162 L3.90701636,8.56722162 L5.0740497,10.2674919 L5.07975879,10.2674919 L9.81259515,17.2218162 L12.2427648,17.2218162 L7.1688103,10.0714378 C9.4924103,9.78781622 11.02768,7.8263027 11.02768,5.47170811 L11.02768,5.47170811 Z" id="Fill-1" fill="#FFFFFF"></path>
                <path d="M19.9444236,9.82644324 L22.1995145,4.57774054 L24.4703055,9.82644324 L19.9444236,9.82644324 Z M14.5245933,17.2215243 L16.6778721,17.2215243 L18.5114418,13.1014703 L19.0166964,11.9626054 L25.3947024,11.9626054 L25.8875873,13.1014703 L27.721157,17.2215243 L29.8744358,17.2215243 L22.1995145,0.0869837838 L14.5245933,17.2215243 Z" id="Fill-3" fill="#FFFFFF"></path>
                <path d="M86.7725679,9.82644324 L89.0276588,4.57774054 L91.2984497,9.82644324 L86.7725679,9.82644324 Z M81.3527376,17.2215243 L83.5060164,17.2215243 L85.3395861,13.1014703 L85.8448406,11.9626054 L92.2228467,11.9626054 L92.7157315,13.1014703 L94.5493012,17.2215243 L96.70258,17.2215243 L89.0276588,0.0869837838 L81.3527376,17.2215243 Z" id="Fill-5" fill="#FFFFFF"></path>
                <mask id="mask-2" fill="white">
                    <use xlink:href="#path-1"></use>
                </mask>
                <g id="Clip-8"></g>
                <polygon id="Fill-7" fill="#FFFFFF" mask="url(#mask-2)" points="33.5627939 17.2216703 35.5666848 17.2216703 35.5666848 0.784751351 33.5627939 0.784751351"></polygon>
                <polygon id="Fill-9" fill="#FFFFFF" mask="url(#mask-2)" points="53.3329476 12.9270649 41.2663082 0.000145945946 41.2663082 17.2217676 43.2706748 17.2217676 43.2706748 4.97057838 55.3368385 17.8974973 55.3368385 0.784848649 53.3329476 0.784848649"></polygon>
                <polygon id="Fill-10" fill="#FFFFFF" mask="url(#mask-2)" points="69.5774521 13.0360865 64.0558097 0.0872756757 60.7726067 17.2218162 62.8407248 17.2218162 64.716637 6.36538378 64.7594552 6.36538378 69.5774521 17.570627 74.3954491 6.36538378 74.4382673 6.36538378 76.3141794 17.2218162 78.3818218 17.2218162 75.0986188 0.0872756757"></polygon>
                <polygon id="Fill-11" fill="#FFFFFF" mask="url(#mask-2)" points="99.9792652 17.221573 101.983156 17.221573 101.983156 8.68324865 101.983156 7.91314054 101.983156 0.784654054 99.9792652 0.784654054"></polygon>
                <polygon id="Fill-12" fill="#FFFFFF" mask="url(#mask-2)" points="116.067721 17.2216703 118.071612 17.2216703 118.071612 0.784751351 116.067721 0.784751351"></polygon>
                <polygon id="Fill-13" fill="#FFFFFF" mask="url(#mask-2)" points="135.361879 12.9270649 123.295716 0.000145945946 123.295716 17.2217676 125.299607 17.2217676 125.299607 4.97057838 137.36577 17.8974973 137.36577 0.784848649 135.361879 0.784848649"></polygon>
                <path d="M150.428123,8.93777838 L150.428123,10.8126973 L154.585292,10.8126973 C154.500132,13.4937243 151.814005,15.6955622 149.319132,15.6955622 C145.844674,15.6955622 143.073386,12.4258865 143.073386,8.98156216 C143.073386,5.2974 145.887017,2.31085946 149.489929,2.31085946 C151.451477,2.31085946 153.391617,3.3786973 154.542474,4.99188649 L155.949289,3.61853514 C154.372153,1.59134595 151.899165,0.435940541 149.404768,0.435940541 C144.778502,0.435940541 141.06902,4.31615676 141.06902,9.04675135 C141.06902,13.6031838 144.693341,17.5704811 149.191629,17.5704811 C153.689917,17.5704811 156.802323,14.1042649 156.802323,9.59161622 L156.802323,8.93777838 L150.428123,8.93777838 Z" id="Fill-14" fill="#FFFFFF" mask="url(#mask-2)"></path>
                <polygon id="Fill-15" fill="#FFFFFF" mask="url(#mask-2)" points="112.100855 1.01456757 109.478479 1.01456757 102.378748 8.51472973 109.521297 17.4514865 112.228833 17.4514865 104.873621 8.40478378"></polygon>
            </g>
        </g>
    </g>
</svg>