<?xml version="1.0" encoding="UTF-8" standalone="no"?>
<svg width="22px" height="18px" viewBox="0 0 22 18" version="1.1" xmlns="http://www.w3.org/2000/svg" xmlns:xlink="http://www.w3.org/1999/xlink">
    <!-- Generator: Sketch 39.1 (31720) - http://www.bohemiancoding.com/sketch -->
    <title>Twitter_logo_blue</title>
    <desc>Created with Sketch.</desc>
    <defs>
        <polygon id="path-1" points="0.00481751825 17.995157 21.9510219 17.995157 21.9510219 0.0663497758 0.00481751825 0.0663497758"></polygon>
    </defs>
    <g id="Page-1" stroke="none" stroke-width="1" fill="none" fill-rule="evenodd">
        <g id="About" transform="translate(-706.000000, -1865.000000)">
            <g id="Group-6" transform="translate(-11.000000, 1426.000000)">
                <g id="Group-2" transform="translate(450.000000, 415.000000)">
                    <g id="Twitter_logo_blue" transform="translate(267.000000, 24.000000)">
                        <mask id="mask-2" fill="white">
                            <use xlink:href="#path-1"></use>
                        </mask>
                        <g id="Clip-2"></g>
                        <path d="M6.90350365,18 C4.36025547,18 1.9930073,17.2505381 0,15.966 C0.352321168,16.0078117 0.710824818,16.0292018 1.07430657,16.0292018 C3.18421898,16.0292018 5.12608029,15.3054081 6.66736496,14.0911749 C4.69667883,14.0546099 3.03351095,12.7456951 2.46046715,10.9469865 C2.73538686,10.9998565 3.01753285,11.0281883 3.30770803,11.0281883 C3.71848175,11.0281883 4.11632847,10.9728969 4.49426277,10.869417 C2.4339708,10.4535605 0.881686131,8.62369507 0.881686131,6.43011659 C0.881686131,6.41106726 0.881686131,6.39209865 0.882007299,6.37321076 C1.48925547,6.71230493 2.18362044,6.91595516 2.92190511,6.93944395 C1.71351095,6.12758744 0.918379562,4.7418296 0.918379562,3.17114798 C0.918379562,2.34145291 1.14046715,1.56373991 1.52811679,0.895076233 C3.74931387,3.6341435 7.06770073,5.43656502 10.8105912,5.62536323 C10.7338321,5.29401794 10.693927,4.94846637 10.693927,4.59363229 C10.693927,2.09340807 12.7103796,0.0663497758 15.1975839,0.0663497758 C16.492854,0.0663497758 17.6632701,0.616197309 18.4848175,1.49609865 C19.5106277,1.29301345 20.4744526,0.916224215 21.3445766,0.397452915 C21.0083139,1.45460987 20.2942774,2.3418565 19.3644161,2.90219731 C20.2754088,2.79274439 21.143365,2.54938117 21.9510219,2.18930045 C21.3472263,3.09721076 20.5836496,3.89461883 19.7038102,4.53293274 C19.7124818,4.7270583 19.7168175,4.9223139 19.7168175,5.11861883 C19.7168175,11.1013184 15.1870657,18 6.90350365,18" id="Fill-1" fill-opacity="0.400000006" fill="#000000" mask="url(#mask-2)"></path>
                    </g>
                </g>
            </g>
        </g>
    </g>
</svg>